<?xml version="1.0" encoding="UTF-8"?>
<svg xmlns="http://www.w3.org/2000/svg" xmlns:xlink="http://www.w3.org/1999/xlink" viewBox="0 0 500 278.52">
  <defs>
    <style>
      .cls-1 {
        fill: #3e572a;
      }

      .cls-2 {
        fill: #e4bf7a;
      }

      .cls-3 {
        fill: #99a4b2;
      }

      .cls-4 {
        fill: #ce8329;
      }

      .cls-5 {
        fill: #333;
      }

      .cls-6 {
        fill: #9e363e;
      }

      .cls-7 {
        fill: #231f20;
      }

      .cls-8 {
        fill: #6a6c6e;
      }

      .cls-9 {
        fill: #b2722a;
      }

      .cls-10 {
        fill: #f6b286;
      }

      .cls-11 {
        fill: #99c379;
      }

      .cls-12 {
        fill: #282c34;
      }

      .cls-13 {
        fill: #8b5e3c;
      }

      .cls-14 {
        fill: #697087;
      }

      .cls-15 {
        fill: #235373;
      }

      .cls-16 {
        fill: #eadbcc;
      }

      .cls-17 {
        fill: #3c3c3c;
        filter: url(#outer-glow-1);
      }

      .cls-18 {
        fill: #939598;
      }

      .cls-19 {
        fill: #dde6f5;
      }

      .cls-20 {
        fill: #e06c75;
      }

      .cls-21 {
        fill: #b27cb6;
      }

      .cls-22 {
        fill: #a56b28;
      }

      .cls-23 {
        fill: #5e687b;
      }

      .cls-24 {
        fill: #20252b;
      }

      .cls-25 {
        fill: #e4e5e5;
      }

      .cls-26 {
        fill: #69addf;
      }

      .cls-27 {
        fill: #35495c;
      }

      .cls-28 {
        fill: #343538;
      }
    </style>
    <filter id="outer-glow-1" filterUnits="userSpaceOnUse">
      <feOffset dx="0" dy="0"/>
      <feGaussianBlur result="blur" stdDeviation="10"/>
      <feFlood flood-color="#ced7dd" flood-opacity=".5"/>
      <feComposite in2="blur" operator="in"/>
      <feComposite in="SourceGraphic"/>
    </filter>
  </defs>
  <g id="Screen">
    <rect id="Bezel" class="cls-17" x="45" y="8.01" width="410" height="235" rx="1" ry="1"/>
    <rect id="Dispaly" class="cls-12" x="50" y="12.9" width="400" height="225" rx="1" ry="1"/>
    <g id="On-Screen">
      <g id="Main_Window">
        <g id="Text">
          <rect class="cls-26" x="144" y="231.4" width="10" height="3" rx="1" ry="1"/>
          <rect class="cls-2" x="144" y="225.4" width="10" height="3" rx="1" ry="1"/>
          <rect class="cls-2" x="185" y="213.4" width="10" height="3" rx="1" ry="1"/>
          <rect class="cls-26" x="172" y="207.4" width="10" height="3" rx="1" ry="1"/>
          <rect class="cls-26" x="195" y="192.4" width="10" height="3" rx="1" ry="1"/>
          <rect class="cls-11" x="167" y="135.4" width="10" height="3" rx="1" ry="1"/>
          <rect class="cls-20" x="210" y="126.4" width="10" height="3" rx="1" ry="1"/>
          <rect class="cls-26" x="195" y="108.4" width="10" height="3" rx="1" ry="1"/>
          <rect class="cls-26" x="167" y="93.4" width="10" height="3" rx="1" ry="1"/>
          <rect class="cls-2" x="139" y="87.4" width="10" height="3" rx="1" ry="1"/>
          <rect class="cls-11" x="162" y="72.4" width="10" height="3" rx="1" ry="1"/>
          <rect class="cls-26" x="139" y="27.4" width="10" height="3" rx="1" ry="1"/>
          <rect class="cls-26" x="220" y="156.4" width="10" height="3" rx="1" ry="1"/>
          <rect class="cls-20" x="149" y="72.4" width="10" height="3" rx="1" ry="1"/>
          <rect class="cls-11" x="144" y="114.4" width="10" height="3" rx="1" ry="1"/>
          <rect class="cls-2" x="144" y="66.4" width="10" height="3" rx="1" ry="1"/>
          <rect class="cls-20" x="195" y="48.4" width="10" height="3" rx="1" ry="1"/>
          <rect class="cls-26" x="246" y="27.4" width="10" height="3" rx="1" ry="1"/>
          <rect class="cls-20" x="149" y="168.4" width="10" height="3" rx="1" ry="1"/>
          <rect class="cls-20" x="139" y="39.4" width="15" height="3" rx="1" ry="1"/>
          <rect class="cls-26" x="167" y="213.4" width="15" height="3" rx="1" ry="1"/>
          <rect class="cls-20" x="139" y="186.4" width="15" height="3" rx="1" ry="1"/>
          <rect class="cls-11" x="167" y="177.4" width="15" height="3" rx="1" ry="1"/>
          <rect class="cls-26" x="162" y="168.4" width="15" height="3" rx="1" ry="1"/>
          <rect class="cls-2" x="180" y="135.4" width="15" height="3" rx="1" ry="1"/>
          <rect class="cls-20" x="185" y="66.4" width="15" height="3" rx="1" ry="1"/>
          <rect class="cls-26" x="190" y="27.4" width="15" height="3" rx="1" ry="1"/>
          <rect class="cls-21" x="259" y="27.4" width="15" height="3" rx="1" ry="1"/>
          <rect class="cls-26" x="144" y="150.4" width="15" height="3" rx="1" ry="1"/>
          <rect class="cls-20" x="215" y="60.4" width="15" height="3" rx="1" ry="1"/>
          <rect class="cls-26" x="277" y="27.4" width="15" height="3" rx="1" ry="1"/>
          <rect class="cls-26" x="182" y="162.4" width="15" height="3" rx="1" ry="1"/>
          <rect class="cls-11" x="233" y="156.4" width="15" height="3" rx="1" ry="1"/>
          <rect class="cls-20" x="177" y="54.4" width="15" height="3" rx="1" ry="1"/>
          <rect class="cls-21" x="139" y="108.4" width="15" height="3" rx="1" ry="1"/>
          <rect class="cls-11" x="144" y="207.4" width="25" height="3" rx="1" ry="1"/>
          <rect class="cls-2" x="139" y="177.4" width="25" height="3" rx="1" ry="1"/>
          <rect class="cls-20" x="180" y="168.4" width="25" height="3" rx="1" ry="1"/>
          <rect class="cls-26" x="144" y="120.4" width="25" height="3" rx="1" ry="1"/>
          <rect class="cls-20" x="139" y="93.4" width="25" height="3" rx="1" ry="1"/>
          <rect class="cls-26" x="157" y="66.4" width="25" height="3" rx="1" ry="1"/>
          <rect class="cls-21" x="187" y="60.4" width="25" height="3" rx="1" ry="1"/>
          <rect class="cls-11" x="195" y="54.4" width="25" height="3" rx="1" ry="1"/>
          <rect class="cls-2" x="208" y="168.4" width="35" height="3" rx="1" ry="1"/>
          <rect class="cls-26" x="149" y="78.4" width="35" height="3" rx="1" ry="1"/>
          <rect class="cls-20" x="208" y="27.4" width="35" height="3" rx="1" ry="1"/>
          <rect class="cls-26" x="149" y="141.4" width="35" height="3" rx="1" ry="1"/>
          <rect class="cls-20" x="157" y="108.4" width="35" height="3" rx="1" ry="1"/>
          <rect class="cls-26" x="233" y="60.4" width="35" height="3" rx="1" ry="1"/>
          <rect class="cls-11" x="139" y="33.4" width="35" height="3" rx="1" ry="1"/>
          <rect class="cls-2" x="152" y="27.4" width="35" height="3" rx="1" ry="1"/>
          <rect class="cls-20" x="182" y="156.4" width="35" height="3" rx="1" ry="1"/>
          <rect class="cls-20" x="144" y="213.4" width="20" height="3" rx="1" ry="1"/>
          <rect class="cls-2" x="172" y="192.4" width="20" height="3" rx="1" ry="1"/>
          <rect class="cls-21" x="185" y="177.4" width="20" height="3" rx="1" ry="1"/>
          <rect class="cls-20" x="144" y="135.4" width="20" height="3" rx="1" ry="1"/>
          <rect class="cls-2" x="144" y="126.4" width="20" height="3" rx="1" ry="1"/>
          <rect class="cls-2" x="208" y="108.4" width="20" height="3" rx="1" ry="1"/>
          <rect class="cls-21" x="139" y="48.4" width="20" height="3" rx="1" ry="1"/>
          <rect class="cls-20" x="182" y="201.4" width="20" height="3" rx="1" ry="1"/>
          <rect class="cls-20" x="157" y="225.4" width="30" height="3" rx="1" ry="1"/>
          <rect class="cls-21" x="149" y="162.4" width="30" height="3" rx="1" ry="1"/>
          <rect class="cls-20" x="187" y="78.4" width="30" height="3" rx="1" ry="1"/>
          <rect class="cls-26" x="157" y="39.4" width="30" height="3" rx="1" ry="1"/>
          <rect class="cls-26" x="139" y="192.4" width="30" height="3" rx="1" ry="1"/>
          <rect class="cls-2" x="149" y="156.4" width="30" height="3" rx="1" ry="1"/>
          <rect class="cls-26" x="144" y="54.4" width="30" height="3" rx="1" ry="1"/>
          <rect class="cls-2" x="162" y="48.4" width="30" height="3" rx="1" ry="1"/>
          <rect class="cls-21" x="144" y="219.4" width="40" height="3" rx="1" ry="1"/>
          <rect class="cls-26" x="139" y="201.4" width="40" height="3" rx="1" ry="1"/>
          <rect class="cls-21" x="167" y="126.4" width="40" height="3" rx="1" ry="1"/>
          <rect class="cls-26" x="139" y="99.4" width="40" height="3" rx="1" ry="1"/>
          <rect class="cls-20" x="180" y="93.4" width="40" height="3" rx="1" ry="1"/>
          <rect class="cls-2" x="175" y="72.4" width="40" height="3" rx="1" ry="1"/>
          <rect class="cls-20" x="144" y="60.4" width="40" height="3" rx="1" ry="1"/>
        </g>
        <g id="Sidebar">
          <path id="Base" class="cls-24" d="M50,22.9h80v215H51c-.55,0-1-.45-1-1V22.9h0Z"/>
          <g id="Items">
            <g id="Item_5">
              <rect id="Text-2" data-name="Text" class="cls-28" x="64" y="212.9" width="60" height="3" rx="1" ry="1"/>
              <rect id="Icon" class="cls-20" x="56" y="211.9" width="5" height="5" rx="1" ry="1"/>
            </g>
            <g id="Item_4">
              <rect id="Text-3" data-name="Text" class="cls-28" x="64" y="202.9" width="60" height="3" rx="1" ry="1"/>
              <rect id="Icon-2" data-name="Icon" class="cls-11" x="56" y="201.9" width="5" height="5" rx="1" ry="1"/>
            </g>
            <g id="Item_3">
              <rect id="Text-4" data-name="Text" class="cls-28" x="64" y="192.9" width="60" height="3" rx="1" ry="1"/>
              <rect id="Icon-3" data-name="Icon" class="cls-21" x="56" y="191.9" width="5" height="5" rx="1" ry="1"/>
            </g>
            <g id="Item_2">
              <rect id="Text-5" data-name="Text" class="cls-28" x="64" y="182.9" width="60" height="3" rx="1" ry="1"/>
              <rect id="Icon-4" data-name="Icon" class="cls-26" x="56" y="181.9" width="5" height="5" rx="1" ry="1"/>
            </g>
            <g id="Item_1">
              <rect id="Text-6" data-name="Text" class="cls-28" x="64" y="172.9" width="60" height="3" rx="1" ry="1"/>
              <rect id="Icon-5" data-name="Icon" class="cls-26" x="56" y="171.9" width="5" height="5" rx="1" ry="1"/>
            </g>
            <g id="Folder_2">
              <g id="Subfolder">
                <g id="Item_2-2" data-name="Item_2">
                  <rect id="Text-7" data-name="Text" class="cls-28" x="74" y="163.4" width="50" height="3" rx="1" ry="1"/>
                  <rect id="Icon-6" data-name="Icon" class="cls-20" x="66" y="162.4" width="5" height="5" rx="1" ry="1"/>
                </g>
                <g id="Item_1-2" data-name="Item_1">
                  <rect id="Text-8" data-name="Text" class="cls-28" x="74" y="153.4" width="50" height="3" rx="1" ry="1"/>
                  <rect id="Icon-7" data-name="Icon" class="cls-21" x="66" y="152.4" width="5" height="5" rx="1" ry="1"/>
                </g>
                <g id="Folder">
                  <rect id="Text-9" data-name="Text" class="cls-28" x="69" y="143.4" width="55" height="3" rx="1" ry="1"/>
                  <rect id="Icon-8" data-name="Icon" class="cls-2" x="61" y="142.4" width="5" height="5" rx="1" ry="1"/>
                </g>
              </g>
              <g id="Item_5-2" data-name="Item_5">
                <rect id="Text-10" data-name="Text" class="cls-28" x="69" y="132.9" width="55" height="3" rx="1" ry="1"/>
                <rect id="Icon-9" data-name="Icon" class="cls-11" x="61" y="131.9" width="5" height="5" rx="1" ry="1"/>
              </g>
              <g id="Item_4-2" data-name="Item_4">
                <rect id="Text-11" data-name="Text" class="cls-28" x="69" y="122.9" width="55" height="3" rx="1" ry="1"/>
                <rect id="Icon-10" data-name="Icon" class="cls-26" x="61" y="121.9" width="5" height="5" rx="1" ry="1"/>
              </g>
              <g id="Item_3-2" data-name="Item_3">
                <rect id="Text-12" data-name="Text" class="cls-28" x="69" y="112.9" width="55" height="3" rx="1" ry="1"/>
                <rect id="Icon-11" data-name="Icon" class="cls-20" x="61" y="111.9" width="5" height="5" rx="1" ry="1"/>
              </g>
              <g id="Item_2-3" data-name="Item_2">
                <rect id="Text-13" data-name="Text" class="cls-28" x="69" y="102.9" width="55" height="3" rx="1" ry="1"/>
                <rect id="Icon-12" data-name="Icon" class="cls-26" x="61" y="101.9" width="5" height="5" rx="1" ry="1"/>
              </g>
              <g id="Item_1-3" data-name="Item_1">
                <rect id="Text-14" data-name="Text" class="cls-28" x="69" y="92.9" width="55" height="3" rx="1" ry="1"/>
                <rect id="Icon-13" data-name="Icon" class="cls-21" x="61" y="91.9" width="5" height="5" rx="1" ry="1"/>
              </g>
              <g id="Folder-2" data-name="Folder">
                <rect id="Text-15" data-name="Text" class="cls-28" x="64" y="82.9" width="60" height="3" rx="1" ry="1"/>
                <rect id="Icon-14" data-name="Icon" class="cls-2" x="56" y="81.9" width="5" height="5" rx="1" ry="1"/>
              </g>
            </g>
            <g id="Folder_1">
              <g id="Item_4-3" data-name="Item_4">
                <rect id="Text-16" data-name="Text" class="cls-28" x="69" y="72.9" width="55" height="3" rx="1" ry="1"/>
                <rect id="Icon-15" data-name="Icon" class="cls-11" x="61" y="71.9" width="5" height="5" rx="1" ry="1"/>
              </g>
              <g id="Item_3-3" data-name="Item_3">
                <rect id="Text-17" data-name="Text" class="cls-28" x="69" y="62.9" width="55" height="3" rx="1" ry="1"/>
                <rect id="Icon-16" data-name="Icon" class="cls-20" x="61" y="61.9" width="5" height="5" rx="1" ry="1"/>
              </g>
              <g id="Item_1-4" data-name="Item_1">
                <rect id="Text-18" data-name="Text" class="cls-28" x="69" y="52.9" width="55" height="3" rx="1" ry="1"/>
                <rect id="Icon-17" data-name="Icon" class="cls-26" x="61" y="51.9" width="5" height="5" rx="1" ry="1"/>
              </g>
              <g id="Folder-3" data-name="Folder">
                <rect id="Text-19" data-name="Text" class="cls-28" x="64" y="42.9" width="60" height="3" rx="1" ry="1"/>
                <rect id="Icon-18" data-name="Icon" class="cls-2" x="56" y="41.9" width="5" height="5" rx="1" ry="1"/>
              </g>
            </g>
          </g>
          <g id="Bottom_Buttons">
            <path class="cls-3" d="M88,224.4v2h-6v-2c0-.55-.45-1-1-1h-6c-.55,0-1,.45-1,1v2h-6v-2c0-.55-.45-1-1-1h-10c-.55,0-1,.45-1,1v6c0,.55.45,1,1,1h10c.55,0,1-.45,1-1v-2h6v2c0,.55.45,1,1,1h6c.55,0,1-.45,1-1v-2h6v2c0,.55.45,1,1,1h34c.55,0,1-.45,1-1v-6c0-.55-.45-1-1-1h-34c-.55,0-1,.45-1,1Z"/>
          </g>
          <rect id="Search" class="cls-3" x="56" y="27.4" width="68" height="8" rx="1" ry="1"/>
        </g>
        <g id="Topbar">
          <path class="cls-8" d="M51,12.9h398c.55,0,1,.45,1,1v9H50v-9c0-.55.45-1,1-1Z"/>
          <path id="Exit" class="cls-20" d="M440,12.9h9c.55,0,1,.45,1,1v9h-10v-10h0Z"/>
        </g>
      </g>
      <g id="Window_2">
        <rect id="Base-2" data-name="Base" class="cls-23" x="302" y="117.4" width="140" height="90" rx="1" ry="1"/>
        <g id="Content">
          <g id="Chart">
            <path id="Bar_7" class="cls-26" d="M414,180.4h6c1.1,0,2,.9,2,2v20h-10v-20c0-1.1.9-2,2-2Z"/>
            <path id="Bar_6" class="cls-26" d="M399,167.4h6c1.1,0,2,.9,2,2v33h-10v-33c0-1.1.9-2,2-2Z"/>
            <path id="Bar_5" class="cls-26" d="M384,136.4h6c1.1,0,2,.9,2,2v64h-10v-64c0-1.1.9-2,2-2Z"/>
            <path id="Bar_4" class="cls-26" d="M369,146.4h6c1.1,0,2,.9,2,2v54h-10v-54c0-1.1.9-2,2-2Z"/>
            <path id="Bar_3" class="cls-26" d="M354,162.4h6c1.1,0,2,.9,2,2v38h-10v-38c0-1.1.9-2,2-2Z"/>
            <path id="Bar_2" class="cls-26" d="M339,182.4h6c1.1,0,2,.9,2,2v18h-10v-18c0-1.1.9-2,2-2Z"/>
            <path id="Bar_1" class="cls-26" d="M324,187.4h6c1.1,0,2,.9,2,2v13h-10v-13c0-1.1.9-2,2-2Z"/>
            <rect id="Base-3" data-name="Base" class="cls-19" x="316" y="200.4" width="112" height="2" rx="1" ry="1"/>
          </g>
          <g id="Menu">
            <rect class="cls-24" x="313" y="133.4" width="18" height="26" rx="1" ry="1"/>
            <rect class="cls-19" x="315" y="135.4" width="14" height="1" rx=".5" ry=".5"/>
            <rect class="cls-19" x="315" y="138.4" width="14" height="1" rx=".5" ry=".5"/>
            <rect class="cls-19" x="315" y="141.4" width="14" height="1" rx=".5" ry=".5"/>
            <rect class="cls-19" x="315" y="144.4" width="14" height="1" rx=".5" ry=".5"/>
            <rect class="cls-19" x="315" y="147.4" width="14" height="1" rx=".5" ry=".5"/>
            <rect class="cls-19" x="315" y="150.4" width="14" height="1" rx=".5" ry=".5"/>
            <rect class="cls-19" x="315" y="153.4" width="14" height="1" rx=".5" ry=".5"/>
            <rect class="cls-19" x="315" y="156.4" width="14" height="1" rx=".5" ry=".5"/>
          </g>
        </g>
        <g id="Topbar-2" data-name="Topbar">
          <path class="cls-8" d="M303,117.4h138c.55,0,1,.45,1,1v9h-140v-9c0-.55.45-1,1-1Z"/>
          <path id="Exit-2" data-name="Exit" class="cls-20" d="M432,117.4h9c.55,0,1,.45,1,1v9h-10v-10h0Z"/>
        </g>
      </g>
      <path id="Cursor" class="cls-19" d="M325.36,99.93v7.41c0,.34.33.58.66.47l4.44-1.48c.32-.11.45-.5.24-.77l-4.44-5.92c-.29-.38-.9-.18-.9.3Z"/>
    </g>
  </g>
  <g id="Desk">
    <polygon class="cls-5" points="409 272.4 403.5 272.4 96.5 272.4 91 272.4 54 272.4 54 468.16 96.5 452.29 96.5 338.4 403.5 338.4 403.5 452.29 446 468.16 446 272.4 409 272.4"/>
    <path class="cls-27" d="M459,260.4H41c-1.1,0-2,.9-2,2v14c0,1.1.9,2,2,2h7v190c0,1.1.9,2,2,2h8c1.1,0,2-.9,2-2v-190h25.5v178h9c1.1,0,2-.9,2-2v-176h307v176c0,1.1.9,2,2,2h9v-178h25.5v190c0,1.1.9,2,2,2h8c1.1,0,2-.9,2-2v-190h7c1.1,0,2-.9,2-2v-14c0-1.1-.9-2-2-2Z"/>
    <path id="Mouse" class="cls-18" d="M366.29,254.04h7.6c3.31,0,6,2.69,6,6v3.35h-19.6v-3.35c0-3.31,2.69-6,6-6Z"/>
    <g id="Books">
      <g id="Blue">
        <path id="Cover" class="cls-15" d="M85.39,228.9h68c1.1,0,2,.9,2,2v9.5c0,1.1-.9,2-2,2h-68c-2.21,0-4-1.79-4-4v-5.5c0-2.21,1.79-4,4-4Z"/>
        <path id="Pages" class="cls-25" d="M89,231.65h66.39v8h-66.39c-2.21,0-4-1.79-4-4h0c0-2.21,1.79-4,4-4Z"/>
      </g>
      <g id="Green">
        <path id="Cover-2" data-name="Cover" class="cls-1" d="M77.66,208.9h68c1.1,0,2,.9,2,2v16c0,1.1-.9,2-2,2h-68c-2.21,0-4-1.79-4-4v-12c0-2.21,1.79-4,4-4Z"/>
        <path id="Pages-2" data-name="Pages" class="cls-25" d="M81.65,212.19h66.02v13.21h-66.02c-2.21,0-4-1.79-4-4v-5.21c0-2.21,1.79-4,4-4Z"/>
      </g>
      <g id="Red">
        <path id="Cover-3" data-name="Cover" class="cls-6" d="M75,242.4h68c1.1,0,2,.9,2,2v14c0,1.1-.9,2-2,2h-68c-2.21,0-4-1.79-4-4v-10c0-2.21,1.79-4,4-4Z"/>
        <path id="Pages-3" data-name="Pages" class="cls-25" d="M79.06,245.61h65.94v11.56h-65.94c-2.21,0-4-1.79-4-4v-3.56c0-2.21,1.79-4,4-4Z"/>
      </g>
    </g>
    <path id="Top_U" class="cls-14" d="M41,260.4h418c1.1,0,2,.9,2,2v5H39v-5c0-1.1.9-2,2-2Z"/>
  </g>
  <g id="Body">
    <g id="Headphones">
      <path class="cls-7" d="M250,74.9h-.01c-12.5,0-25.24,5.2-34.95,14.26-9.42,8.79-14.94,20.08-15.77,32.08-.12,1.72,1.28,3.16,3,3.16h.89c0,5.89,2.53,10.87,4.05,13.17.55.84,1.49,1.33,2.49,1.33h7.3v-29h-5.41c-.74,0-1.21-.76-.9-1.43,2.26-4.92,5.56-9.49,9.81-13.46,8.24-7.7,18.99-12.11,29.49-12.11h.01c15.88,0,32.6,9.83,39.53,25.61.29.65-.21,1.39-.93,1.39h-5.6v29h7.3c1,0,1.94-.49,2.49-1.33,1.52-2.3,4.05-7.28,4.05-13.17h.9c1.72,0,3.11-1.45,3-3.17-1.8-27.84-27.07-46.32-50.74-46.33Z"/>
    </g>
    <g id="Head">
      <path class="cls-10" d="M285,140.97h-69.99c2.56,1.86,9.03,15.78,17.78,25.73.79.9,1.2,2.06,1.2,3.25v11.94h32v-11.12c0-1.22.44-2.42,1.26-3.32,9.15-9.99,15.3-24.57,17.74-26.49Z"/>
      <path class="cls-13" d="M250,89.4c-5.6,0-10.66.61-15.11,1.54-11.59,2.42-19.89,12.64-19.89,24.48v13.15s0,12,0,12c0,6.16,3.76,11.69,9.49,13.95,6.42,2.54,15.12,7.88,25.51,7.88s19.2-5.06,25.29-7.39,9.71-7.79,9.71-14.04v-25.63c0-11.86-8.32-22.15-19.95-24.49-4.39-.88-9.42-1.45-15.05-1.45Z"/>
    </g>
    <g id="Upper">
      <path id="Shoulders" class="cls-16" d="M202.5,176.9h95c7.73,0,14,6.27,14,14v7.85h-123v-7.85c0-7.73,6.27-14,14-14Z"/>
    </g>
  </g>
  <g id="Chair">
    <g id="Arms">
      <g id="Arm_L">
        <path class="cls-22" d="M143.75,270.65h28.5c1.66,0,3,1.34,3,3v7.75c0,2.76-2.24,5-5,5h-26.5v-15.75h0Z" transform="translate(319 557.04) rotate(-180)"/>
      </g>
      <g id="Arm_L-2" data-name="Arm_L">
        <path class="cls-22" d="M324.75,270.65h26.5c2.76,0,5,2.24,5,5v7.75c0,1.66-1.34,3-3,3h-28.5v-15.75h0Z"/>
      </g>
    </g>
    <path id="Seat" class="cls-4" d="M330.11,338.08c-1.55-4.92-6.22-8.18-11.38-8.18h-6.88c5.41,0,10.2-3.65,11.54-8.92,3.81-14.95,5.6-35.13,5.6-60.58s-1.94-45.57-5.67-60.52c-1.32-5.3-6.12-8.98-11.56-8.98h-123.54c-5.44,0-10.23,3.68-11.56,8.98-3.73,14.95-5.67,35.03-5.67,60.52s1.79,45.63,5.6,60.58c1.34,5.27,6.13,8.92,11.54,8.92h-6.88c-5.16,0-9.83,3.27-11.38,8.18-.53,1.69-.89,3.61-.89,5.73,0,5.08,1.69,8.42,3.28,10.47,1.31,1.68,3.34,2.62,5.47,2.62h144.51c2.13,0,4.16-.94,5.47-2.62,1.59-2.05,3.28-5.39,3.28-10.47,0-2.11-.35-4.03-.89-5.73Z"/>
    <path id="Seat-2" data-name="Seat" class="cls-9" d="M318.47,331.47c-1.33-4.2-5.32-6.99-9.73-6.99h-5.88c4.63,0,8.71-3.12,9.86-7.62,3.26-12.78,4.79-30.02,4.79-51.77s-1.66-38.95-4.85-51.72c-1.13-4.53-5.23-7.68-9.88-7.68h-105.58c-4.65,0-8.75,3.15-9.88,7.68-3.19,12.78-4.85,29.94-4.85,51.72s1.53,39,4.79,51.77c1.15,4.51,5.24,7.62,9.86,7.62h-5.88c-4.41,0-8.4,2.79-9.73,6.99-.46,1.45-.76,3.09-.76,4.89,0,4.34,1.44,7.2,2.8,8.95,1.12,1.43,2.85,2.24,4.67,2.24h123.5c1.82,0,3.55-.81,4.67-2.24,1.36-1.75,2.8-4.61,2.8-8.95,0-1.81-.3-3.45-.76-4.89Z"/>
  </g>
</svg>