<?xml version="1.0" encoding="UTF-8"?>
<svg xmlns="http://www.w3.org/2000/svg" version="1.1" viewBox="0 0 800 800">
  <!-- Generator: Adobe Illustrator 28.6.0, SVG Export Plug-In . SVG Version: 1.2.0 Build 709)  -->
  <g>
    <g id="Capa_1">
      <path d="M238.6,219c-27.8-.1-27.8,43.1,0,43,110.1,0,220.1,0,330.2,0,28.2.4,28.2-43.4,0-43-110.1,0-220.1,0-330.2,0Z"/>
      <path d="M238.7,320c-28.2-.3-28.2,43.3,0,43,110,0,220.1,0,330.1,0,28.6.7,28.6-43.7,0-43-110,0-220.1,0-330.1,0Z"/>
      <path d="M238.7,414c-28.1-.3-28.1,43.3,0,43,110,0,220.1,0,330.1,0,28.6.7,28.6-43.7,0-43-110,0-220.1,0-330.1,0Z"/>
      <path d="M238.6,516c-28.1-.3-28.2,43.3,0,43,110.1,0,220.2,0,330.3,0,28.6.7,28.6-43.7,0-43-110.1,0-220.2,0-330.3,0Z"/>
      <path d="M563.1,611H232c-27.7,0-27.7,43,0,43h331.2c27.7,0,27.7-43,0-43Z"/>
      <path d="M95.5,0v800h616V111L597.1,0H95.5ZM658.6,746H149.5V53h420v84h89v609h0Z"/>
    </g>
  </g>
</svg>