<?xml version="1.0" encoding="UTF-8"?>
<svg id="Layer_1" xmlns="http://www.w3.org/2000/svg" viewBox="0 0 256 228">
  <defs>
    <style>
      .cls-1 {
        fill: #231f20;
      }
    </style>
  </defs>
  <path class="cls-1" d="M216,14H40C17.91,14,0,27.99,0,45.25h0v137.5h0c0,17.26,17.91,31.25,40,31.25h176c22.09,0,40-13.99,40-31.25h0V45.25h0c0-17.26-17.91-31.25-40-31.25h0ZM216,182.75H40V45.25h176v137.5Z"/>
  <path class="cls-1" d="M99.02,112.65h0S220.43,20.45,220.43,20.45l28.18,22.19-92.39,71.6c-15.36,11.9-40.97,11.19-57.2-1.58Z"/>
  <path class="cls-1" d="M158.31,112.65h0S36.91,20.45,36.91,20.45l-28.18,22.19,92.39,71.6c15.36,11.9,40.97,11.19,57.2-1.58Z"/>
</svg>