<?xml version="1.0" encoding="UTF-8"?>
<svg xmlns="http://www.w3.org/2000/svg" version="1.1" viewBox="0 0 44 44">
  <!-- Generator: Adobe Illustrator 28.6.0, SVG Export Plug-In . SVG Version: 1.2.0 Build 709)  -->
  <g>
    <g id="Layer_1">
      <path d="M36,44h0c-7.5-.2-16.3-7.5-22.4-13.6C7.5,24.3.2,15.5,0,8,0,5.4,6.4.7,6.4.7c1.7-1.2,3.5-.8,4.3.3.5.7,5.4,8.1,5.9,9,.6.9.5,2.2-.2,3.5-.4.7-1.6,2.9-2.2,4,.6.9,2.3,3.1,5.8,6.6,3.5,3.5,5.7,5.2,6.6,5.8,1-.6,3.2-1.8,4-2.2,1.3-.7,2.6-.8,3.5-.2.9.5,8.3,5.5,9,5.9.6.4.9,1.1,1,1.9,0,.8-.2,1.7-.7,2.4,0,0-4.7,6.4-7.3,6.4Z"/>
    </g>
  </g>
</svg>