<?xml version="1.0" encoding="UTF-8"?>
<svg id="Button" xmlns="http://www.w3.org/2000/svg" viewBox="0 0 188 74">
  <defs>
    <style>
      .cls-1 {
        fill: #fff;
      }
    </style>
  </defs>
  <path class="cls-1" d="M39.84,15.31H13.59v43.31h31.81V20.56h-5.56v-5.25ZM39.44,52.88h-20.7c-1.73,0-1.73-2.69,0-2.69h20.7c1.73,0,1.73,2.69,0,2.69ZM39.8,46.94c-6.88,0-13.76,0-20.64,0-1.76.02-1.76-2.71,0-2.69,6.88,0,13.76,0,20.64,0,1.79-.04,1.79,2.73,0,2.69ZM39.79,40.56c-6.88,0-13.76,0-20.63,0-1.76.02-1.76-2.71,0-2.69,6.88,0,13.76,0,20.63,0,1.79-.04,1.79,2.73,0,2.69ZM39.79,34.69c-6.88,0-13.75,0-20.63,0-1.76.02-1.76-2.71,0-2.69,6.88,0,13.75,0,20.63,0,1.79-.04,1.79,2.73,0,2.69ZM39.8,28.37c-6.88,0-13.76,0-20.64,0-1.74,0-1.74-2.69,0-2.69,6.88,0,13.76,0,20.64,0,1.76-.02,1.76,2.71,0,2.69Z"/>
  <path class="cls-1" d="M83.62,35.32c-.61-.52-1.36-.78-2.27-.78s-1.6.25-2.19.75c-.6.5-.96,1.21-1.1,2.13h6.48c0-.88-.3-1.58-.91-2.1Z"/>
  <path class="cls-1" d="M64.69,35.14c.47-.46.71-1.11.71-1.95s-.24-1.43-.71-1.89c-.47-.46-1.19-.69-2.13-.69h-3.21v5.22h3.21c.95,0,1.66-.23,2.13-.69Z"/>
  <path class="cls-1" d="M169.31,34.54c-.87,0-1.6.25-2.19.75-.6.5-.96,1.21-1.1,2.13h6.48c0-.88-.3-1.58-.91-2.1-.6-.52-1.36-.78-2.27-.78Z"/>
  <path class="cls-1" d="M173,0H15C6.72,0,0,6.72,0,15v44c0,8.28,6.72,15,15,15h158c8.28,0,15-6.72,15-15V15c0-8.28-6.72-15-15-15ZM129.82,30.67h5.17v2.1c.52-.7,1.21-1.25,2.06-1.67.85-.41,1.8-.61,2.87-.61,1.27,0,2.41.27,3.4.81,1,.54,1.78,1.31,2.34,2.31.58-.92,1.38-1.67,2.39-2.25s2.11-.87,3.3-.87c2.1,0,3.77.63,5.01,1.89,1.24,1.26,1.86,3.01,1.86,5.25v9.78h-5.14v-9.09c0-1.08-.29-1.92-.86-2.51-.58-.59-1.37-.88-2.38-.88s-1.8.3-2.38.88c-.58.59-.86,1.43-.86,2.51v9.09h-5.14v-9.09c0-1.08-.29-1.92-.86-2.51-.57-.59-1.37-.88-2.38-.88s-1.8.3-2.38.88c-.58.59-.86,1.43-.86,2.51v9.09h-5.17v-16.74ZM109.28,30.67h5.14v9.09c0,1.12.29,1.99.88,2.61.58.62,1.37.93,2.36.93s1.81-.31,2.39-.93c.58-.62.88-1.49.88-2.61v-9.09h5.17v16.74h-5.17v-2.28c-.52.74-1.24,1.33-2.13,1.78-.9.45-1.89.67-2.98.67-1.29,0-2.43-.29-3.42-.85-.99-.57-1.75-1.4-2.3-2.48s-.82-2.35-.82-3.81v-9.78ZM100.62,41.45c-.5-.23-1.32-.48-2.45-.77-1.21-.28-2.22-.57-3.03-.88-.81-.31-1.5-.8-2.09-1.47-.59-.67-.88-1.57-.88-2.71,0-.96.27-1.83.8-2.62.53-.79,1.32-1.41,2.36-1.88,1.04-.46,2.27-.69,3.71-.69,2.12,0,3.79.52,5.01,1.56,1.22,1.04,1.92,2.42,2.1,4.14h-4.78c-.08-.58-.34-1.04-.77-1.38-.43-.34-1-.51-1.71-.51-.61,0-1.07.12-1.39.34-.32.23-.48.55-.48.95,0,.48.26.84.77,1.08.51.24,1.32.48,2.41.72,1.25.32,2.27.64,3.06.95.79.31,1.48.81,2.07,1.5.59.69.9,1.62.92,2.77,0,.98-.28,1.85-.83,2.62s-1.35,1.38-2.39,1.81c-1.04.44-2.24.66-3.62.66-1.47,0-2.78-.25-3.93-.75-1.15-.5-2.06-1.19-2.72-2.06-.67-.87-1.04-1.85-1.12-2.93h5.11c.06.58.33,1.05.82,1.41.48.36,1.08.54,1.79.54.64,0,1.14-.12,1.5-.38.35-.25.53-.57.53-.98,0-.48-.25-.83-.76-1.06ZM73.95,34.48c.72-1.3,1.72-2.3,3.01-3,1.29-.7,2.77-1.05,4.45-1.05s3.09.34,4.36,1.02c1.27.68,2.26,1.65,2.98,2.91.72,1.26,1.07,2.73,1.07,4.41,0,.48-.03.98-.09,1.5h-11.71c.08,1.04.42,1.84,1.01,2.39.59.55,1.33.82,2.19.82,1.29,0,2.19-.54,2.69-1.62h5.51c-.28,1.1-.79,2.09-1.53,2.97-.74.88-1.66,1.57-2.77,2.07s-2.35.75-3.72.75c-1.65,0-3.13-.35-4.42-1.05-1.29-.7-2.3-1.7-3.03-3-.73-1.3-1.09-2.82-1.09-4.56s.36-3.26,1.07-4.56ZM54.18,26.35h8.68c1.67,0,3.1.29,4.28.87,1.18.58,2.06,1.38,2.65,2.38.58,1.01.88,2.14.88,3.38,0,1.4-.4,2.65-1.2,3.75-.8,1.1-1.97,1.88-3.52,2.34l4.9,8.34h-5.84l-4.42-7.95h-1.24v7.95h-5.17v-21.06ZM48.72,62H10.22V12h31.35l7.15,6.94v43.06ZM177.78,55.43H54.18v-2.85h123.61v2.85ZM177.69,40.27h-11.71c.08,1.04.42,1.84,1.01,2.39.59.55,1.33.82,2.19.82,1.29,0,2.19-.54,2.69-1.62h5.51c-.28,1.1-.79,2.09-1.53,2.97-.74.88-1.66,1.57-2.77,2.07-1.11.5-2.35.75-3.72.75-1.65,0-3.13-.35-4.42-1.05-1.29-.7-2.3-1.7-3.03-3-.73-1.3-1.09-2.82-1.09-4.56s.36-3.26,1.07-4.56c.72-1.3,1.72-2.3,3.01-3,1.29-.7,2.77-1.05,4.45-1.05s3.09.34,4.36,1.02c1.27.68,2.26,1.65,2.98,2.91.72,1.26,1.07,2.73,1.07,4.41,0,.48-.03.98-.09,1.5Z"/>
</svg>