<?xml version="1.0" encoding="UTF-8"?>
<svg id="Layer_1" data-name="Layer 1" xmlns="http://www.w3.org/2000/svg" viewBox="0 0 1920 1080">
  <defs>
    <style>
      .cls-1 {
        fill: none;
        stroke: #000;
        stroke-miterlimit: 10;
        stroke-width: 2px;
      }
    </style>
  </defs>
  <g>
    <path class="cls-1" d="M2241,9c-126,63-742.22,246.5-729,423,11.26,150.32,299.11,278.18,288,360-16.27,119.81-421.58,187.61-1152,288"/>
    <path class="cls-1" d="M2232.53,6.09c-126.12,61.15-728.54,242.53-715.76,417.44,10.87,149.93,295.9,282.19,285.35,366.09-14.94,118.82-409.4,188.16-1122.38,290.38"/>
    <path class="cls-1" d="M2224.06,3.18c-126.24,59.29-714.87,238.57-702.53,411.88,10.48,149.55,292.68,286.19,282.71,372.18-13.67,117.83-397.23,188.71-1092.76,292.76"/>
    <path class="cls-1" d="M2215.59.26c-126.35,57.44-701.19,234.6-689.29,406.32,10.1,149.17,289.44,290.18,280.06,378.26-12.44,116.82-385.05,189.26-1063.15,295.15"/>
    <path class="cls-1" d="M2207.12-2.65c-126.47,55.59-687.52,230.63-676.06,400.76,9.71,148.78,286.19,294.16,277.41,384.35-11.27,115.8-372.88,189.81-1033.53,297.53"/>
    <path class="cls-1" d="M2198.65-5.56c-126.59,53.74-673.85,226.67-662.82,395.21,9.32,148.4,282.92,298.14,274.76,390.44-10.14,114.76-360.71,190.36-1003.91,299.91"/>
    <path class="cls-1" d="M2190.18-8.47c-126.71,51.88-660.17,222.7-649.59,389.65,8.94,148.02,279.63,302.11,272.12,396.53-9.05,113.73-348.53,190.9-974.29,302.29"/>
    <path class="cls-1" d="M2181.71-11.38c-126.82,50.03-646.5,218.73-636.35,384.09,8.55,147.63,276.33,306.07,269.47,402.62-8,112.68-336.36,191.45-944.68,304.68"/>
    <path class="cls-1" d="M2173.24-14.29c-126.94,48.18-632.83,214.76-623.12,378.53,8.16,147.25,273,310.03,266.82,408.71-6.99,111.63-324.18,192-915.06,307.06"/>
    <path class="cls-1" d="M2164.76-17.21c-127.06,46.32-618.81,210.78-609.88,372.97,8.08,146.85,269.66,313.98,264.18,414.79-6.01,110.57-312.01,192.55-885.44,309.44"/>
    <path class="cls-1" d="M2156.29-20.12c-127.18,44.47-605.11,206.81-596.65,367.41,7.72,146.46,266.3,317.93,261.53,420.88-5.07,109.5-299.84,193.1-855.82,311.82"/>
    <path class="cls-1" d="M2147.82-23.03c-127.29,42.62-591.42,202.84-583.41,361.85,7.36,146.08,262.91,321.87,258.88,426.97-4.16,108.44-287.66,193.65-826.21,314.21"/>
    <path class="cls-1" d="M2139.35-25.94c-127.41,40.76-577.73,198.88-570.18,356.29,6.99,145.7,259.51,325.81,256.24,433.06-3.28,107.37-275.49,194.2-796.59,316.59"/>
    <path class="cls-1" d="M2130.88-28.85c-127.53,38.91-564.04,194.91-556.94,350.74,6.62,145.31,256.08,329.75,253.59,439.15-2.42,106.3-263.31,194.75-766.97,318.97"/>
    <path class="cls-1" d="M2122.41-31.76c-127.65,37.06-550.35,190.94-543.71,345.18,6.25,144.93,252.63,333.69,250.94,445.24-1.59,105.22-251.14,195.3-737.35,321.35"/>
    <path class="cls-1" d="M2113.94-34.68c-127.76,35.21-536.67,186.98-530.47,339.62,5.87,144.55,249.16,337.63,248.29,451.32-.79,104.15-238.97,195.85-707.74,323.74"/>
    <path class="cls-1" d="M2105.47-37.59c-127.88,33.35-522.99,183.01-517.24,334.06,5.49,144.17,245.66,341.56,245.65,457.41-.01,103.07-226.79,196.4-678.12,326.12"/>
    <path class="cls-1" d="M2097-40.5c-128,31.5-509.32,179.04-504,328.5,5.11,143.78,242.13,345.5,243,463.5.75,102-214.62,196.95-648.5,328.5"/>
    <path class="cls-1" d="M2088.53-43.41c-128.12,29.65-495.64,175.08-490.76,322.94,4.73,143.4,238.59,349.44,240.35,469.59,1.48,100.92-202.44,197.5-618.88,330.88"/>
    <path class="cls-1" d="M2080.06-46.32c-128.24,27.79-481.97,171.11-477.53,317.38,4.34,143.02,235.01,353.38,237.71,475.68,2.2,99.85-190.27,198.05-589.26,333.26"/>
    <path class="cls-1" d="M2071.59-49.24c-128.35,25.94-468.3,167.15-464.29,311.82,3.95,142.64,231.41,357.32,235.06,481.76,2.9,98.78-178.1,198.6-559.65,335.65"/>
    <path class="cls-1" d="M2063.12-52.15c-128.47,24.09-454.64,163.18-451.06,306.26,3.56,142.26,227.77,361.26,232.41,487.85,3.58,97.71-165.92,199.15-530.03,338.03"/>
    <path class="cls-1" d="M2054.65-55.06c-128.59,22.24-440.98,159.22-437.82,300.71,3.17,141.87,224.11,365.2,229.76,493.94,4.24,96.64-153.75,199.7-500.41,340.41"/>
    <path class="cls-1" d="M2046.18-57.97c-128.71,20.38-427.32,155.25-424.59,295.15,2.77,141.49,220.42,369.15,227.12,500.03,4.89,95.57-141.57,200.25-470.79,342.79"/>
    <path class="cls-1" d="M2037.71-60.88c-128.82,18.53-413.67,151.29-411.35,289.59,2.36,141.11,216.7,373.11,224.47,506.12,5.52,94.51-129.4,200.8-441.18,345.18"/>
    <path class="cls-1" d="M2029.24-63.79c-128.94,16.68-400.02,147.32-398.12,284.03,1.96,140.73,212.94,377.06,221.82,512.21,6.14,93.45-117.23,201.35-411.56,347.56"/>
    <path class="cls-1" d="M2020.76-66.71c-129.06,14.82-386.37,143.35-384.88,278.47,1.55,140.35,209.15,381.03,219.18,518.29,6.75,92.4-105.05,201.9-381.94,349.94"/>
    <path class="cls-1" d="M2012.29-69.62c-129.18,12.97-372.73,139.39-371.65,272.91,1.13,139.96,205.33,384.99,216.53,524.38,7.34,91.35-92.88,202.45-352.32,352.32"/>
    <path class="cls-1" d="M2003.82-72.53c-129.29,11.12-359.09,135.42-358.41,267.35.71,139.58,201.47,388.97,213.88,530.47,7.92,90.3-80.7,203-322.71,354.71"/>
    <path class="cls-1" d="M1995.35-75.44c-129.41,9.26-345.68,131.46-345.18,261.79.04,139.2,197.58,392.95,211.24,536.56,8.49,89.26-68.53,203.55-293.09,357.09"/>
    <path class="cls-1" d="M1986.88-78.35c-129.53,7.41-332.01,127.49-331.94,256.24-.35,138.82,193.65,396.94,208.59,542.65,9.04,88.22-56.36,204.1-263.47,359.47"/>
    <path class="cls-1" d="M1978.41-81.26c-129.65,5.56-318.33,123.52-318.71,250.68-.73,138.43,189.68,400.94,205.94,548.74,9.59,87.19-44.18,204.64-233.85,361.85"/>
    <path class="cls-1" d="M1969.94-84.18c-129.76,3.71-304.66,119.56-305.47,245.12-1.12,138.05,185.68,404.95,203.29,554.82,10.13,86.16-32.01,205.19-204.24,364.24"/>
    <path class="cls-1" d="M1961.47-87.09c-129.88,1.85-290.99,115.59-292.24,239.56-1.51,137.67,181.63,408.97,200.65,560.91,10.66,85.14-19.83,205.74-174.62,366.62"/>
    <path class="cls-1" d="M1953-90c-130,0-277.31,111.62-279,234-1.89,137.28,177.54,413,198,567,11.18,84.13-7.66,206.29-145,369"/>
  </g>
  <g>
    <path class="cls-1" d="M267,1080c-42.09-45.04-99.41-116.49-145-216-8.1-17.68-66.82-148.46-72-288C38.45,265.08,297.26,33.66,336,0"/>
    <path class="cls-1" d="M277.29,1080c-54.91-43.1-113.92-114.71-158.71-212.57-10.56-23.25-56.96-154.76-61.71-301.71C47.05,262.22,290.52,35.8,325.71,0"/>
    <path class="cls-1" d="M287.57,1080c-67.73-41.16-128.64-112.83-172.43-209.14-13.09-28.79-47.13-161.06-51.43-315.43C55.47,259.37,283.77,37.93,315.43,0"/>
    <path class="cls-1" d="M297.86,1080c-80.56-39.22-143.19-111.02-186.14-205.71-15.58-34.35-37.32-167.35-41.14-329.14C63.76,256.52,277.03,40.07,305.14,0"/>
    <path class="cls-1" d="M308.14,1080c-93.38-37.29-157.72-109.23-199.86-202.29-18.07-39.91-27.54-173.64-30.86-342.86C71.92,253.68,270.28,42.21,294.86,0"/>
    <path class="cls-1" d="M318.43,1080c-106.2-35.35-172.24-107.44-213.57-198.86-20.56-45.47-17.78-179.93-20.57-356.57C79.97,250.85,263.54,44.35,284.57,0"/>
    <path class="cls-1" d="M328.71,1080c-119.03-33.41-186.75-105.66-227.29-195.43-23.04-51.04-8.06-186.21-10.29-370.29C87.92,248.02,256.8,46.49,274.29,0"/>
    <path class="cls-1" d="M339,1080c-131.85-31.47-201.26-103.87-241-192-25.52-56.6,1.63-192.49,0-384C95.79,245.2,250.05,48.62,264,0"/>
    <path class="cls-1" d="M349.29,1080c-144.67-29.53-215.76-102.09-254.71-188.57-28-62.16,11.29-198.77,10.29-397.71C103.59,242.37,243.31,50.76,253.71,0"/>
    <path class="cls-1" d="M359.57,1080c-157.49-27.59-230.26-100.32-268.43-185.14-30.48-67.73,20.91-205.05,20.57-411.43C111.31,239.55,236.56,52.9,243.43,0"/>
    <path class="cls-1" d="M369.86,1080c-170.32-25.65-244.75-98.54-282.14-181.71-32.95-73.3,30.49-211.33,30.86-425.14C118.98,236.73,229.82,55.04,233.14,0"/>
    <path class="cls-1" d="M380.14,1080c-183.14-23.71-259.25-96.76-295.86-178.29-35.42-78.87,40.02-217.6,41.14-438.86C126.59,233.91,223.08,57.18,222.86,0"/>
    <path class="cls-1" d="M390.43,1080c-195.96-21.77-273.74-94.99-309.57-174.86-37.88-84.44,49.5-223.88,51.43-452.57C134.16,231.08,216.33,59.31,212.57,0"/>
    <path class="cls-1" d="M400.71,1080c-208.78-19.83-288.23-93.21-323.29-171.43-40.34-90.01,58.92-230.16,61.71-466.29C141.68,228.26,209.59,61.45,202.29,0"/>
    <path class="cls-1" d="M411,1080c-221.61-17.9-302.72-91.43-337-168-42.8-95.59,68.28-236.44,72-480C149.16,225.44,202.84,63.59,192,0"/>
    <path class="cls-1" d="M421.29,1080c-234.43-15.96-317.07-89.72-350.71-164.57-45.06-101.25,77.57-242.73,82.29-493.71,3.74-199.11,43.24-355.99,28.86-421.71"/>
    <path class="cls-1" d="M431.57,1080c-247.25-14.02-331.58-87.94-364.43-161.14-47.52-106.82,86.78-249.01,92.57-507.43,4.3-191.65,29.64-343.56,11.71-411.43"/>
    <path class="cls-1" d="M441.86,1080c-260.08-12.08-346.09-86.16-378.14-157.71-49.98-112.39,95.9-255.3,102.86-521.14,4.82-184.19,16.04-331.14-5.43-401.14"/>
    <path class="cls-1" d="M452.14,1080c-272.9-10.14-360.6-84.37-391.86-154.29-52.45-117.97,104.93-261.6,113.14-534.86,5.31-176.74,2.44-318.72-22.57-390.86"/>
    <path class="cls-1" d="M462.43,1080c-285.72-8.2-375.11-82.59-405.57-150.86-54.91-123.54,113.84-267.9,123.43-548.57,5.78-169.3-11.16-306.29-39.71-380.57"/>
    <path class="cls-1" d="M472.71,1080c-298.54-6.26-389.62-80.8-419.29-147.43C-3.95,803.46,176.06,658.36,187.14,370.29,193.37,208.43,162.38,76.42,130.29,0"/>
    <path class="cls-1" d="M483,1080c-311.37-4.32-404.13-79.02-433-144-59.84-134.68,131.28-280.53,144-576C200.65,205.58,155.63,78.55,120,0"/>
  </g>
</svg>