<?xml version="1.0" encoding="UTF-8"?>
<svg id="svg10" xmlns="http://www.w3.org/2000/svg" viewBox="0 0 256 256">
  <defs>
    <style>
      .cls-1 {
        fill: #fff;
      }

      .cls-1, .cls-2, .cls-3, .cls-4 {
        fill-rule: evenodd;
        stroke-width: 0px;
      }

      .cls-2 {
        fill: #00599c;
      }

      .cls-3 {
        fill: #004482;
      }

      .cls-4 {
        fill: #659ad2;
      }
    </style>
  </defs>
  <path id="path2" class="cls-3" d="M121.31,1.74c4.14-2.32,9.23-2.32,13.37,0,20.45,11.48,81.99,46.03,102.44,57.5,4.14,2.32,6.69,6.61,6.69,11.25v115c0,4.64-2.55,8.94-6.69,11.26-20.45,11.48-81.99,46.03-102.44,57.5-4.14,2.32-9.23,2.32-13.37,0-20.45-11.48-81.99-46.03-102.44-57.5-4.13-2.32-6.68-6.61-6.68-11.25v-115c0-4.64,2.55-8.94,6.69-11.26C39.32,47.77,100.87,13.22,121.31,1.74h0Z"/>
  <path id="path4" class="cls-4" d="M14.04,191.42c-1.62-2.17-1.85-4.23-1.85-7v-114.34c0-4.62,2.54-8.89,6.67-11.19C39.23,47.47,100.57,13.12,120.94,1.71c4.13-2.31,9.72-2.26,13.84.05,20.38,11.41,81.5,45.46,101.88,56.87,1.65.93,2.9,2.04,4.02,3.51L14.04,191.42Z"/>
  <path id="path6" class="cls-1" d="M128,42.67c47.1,0,85.33,38.24,85.33,85.33s-38.24,85.33-85.33,85.33-85.33-38.24-85.33-85.33S80.9,42.67,128,42.67ZM128,85.33c23.55,0,42.67,19.11,42.67,42.67s-19.12,42.67-42.67,42.67-42.67-19.12-42.67-42.67,19.11-42.67,42.67-42.67Z"/>
  <path id="path8" class="cls-2" d="M240.67,62.2c3.15,2.94,3.08,7.38,3.08,10.87,0,23.13-.2,88.92.05,112.05.02,2.41-.77,4.96-1.97,6.87l-116.32-64,115.15-65.8Z"/>
</svg>