<?xml version="1.0" encoding="UTF-8"?>
<svg id="svg2" xmlns="http://www.w3.org/2000/svg" viewBox="0 0 256 256">
  <defs>
    <style>
      .cls-1 {
        fill: #2965f1;
      }

      .cls-1, .cls-2, .cls-3, .cls-4 {
        stroke-width: 0px;
      }

      .cls-2 {
        fill: #ebebeb;
      }

      .cls-3 {
        fill: #264de4;
      }

      .cls-4 {
        fill: #fff;
      }
    </style>
  </defs>
  <g id="layer1">
    <g id="g3013">
      <polygon id="polygon2989" class="cls-3" points="127.86 256 35.68 230.41 15.14 0 240.86 0 220.3 230.37 127.86 256"/>
      <polygon id="polygon2991" class="cls-1" points="202.69 215.7 220.27 18.84 128 18.84 128 236.41 202.69 215.7"/>
      <polygon id="polygon2993" class="cls-2" points="62.23 104.29 64.76 132.55 128 132.55 128 104.29 62.23 104.29"/>
      <polygon id="polygon2995" class="cls-2" points="57.14 47.1 59.71 75.36 128 75.36 128 47.1 127.9 47.1 57.14 47.1"/>
      <polygon id="polygon2997" class="cls-2" points="128 177.69 127.88 177.72 96.4 169.22 94.39 146.68 79.1 146.68 66.02 146.68 69.98 191.05 127.87 207.12 128 207.09 128 177.69"/>
      <polygon id="polygon3005" class="cls-4" points="193.59 104.29 198.69 47.1 127.9 47.1 127.9 75.36 167.72 75.36 165.15 104.29 127.9 104.29 127.9 132.55 162.7 132.55 159.42 169.2 127.9 177.71 127.9 207.11 185.83 191.05 186.26 186.28 192.9 111.88 193.59 104.29"/>
    </g>
  </g>
</svg>