<?xml version="1.0" encoding="UTF-8"?>
<svg id="Layer_1" data-name="Layer 1" xmlns="http://www.w3.org/2000/svg" viewBox="0 0 256 256">
  <defs>
    <style>
      .cls-1 {
        fill: #1d63ed;
        stroke-width: 0px;
      }
    </style>
  </defs>
  <path class="cls-1" d="M251.84,109.99c-6.28-4.22-22.77-6.03-34.76-2.8-.65-11.94-6.8-22.01-18.07-30.79l-4.17-2.8-2.78,4.2c-5.46,8.29-7.77,19.34-6.95,29.39.64,6.19,2.8,13.14,6.95,18.19-15.61,9.05-29.99,7-93.69,7H.02c-.29,14.38,2.02,42.05,19.62,64.58,1.94,2.49,4.08,4.89,6.39,7.21,14.31,14.33,35.92,24.83,68.24,24.86,49.31.04,91.55-26.61,117.25-91.05,8.46.14,30.78,1.52,41.7-19.59.27-.36,2.78-5.6,2.78-5.6l-4.16-2.8h0ZM64.21,96.84h-27.66v27.66h27.66v-27.66ZM99.94,96.84h-27.66v27.66h27.66v-27.66ZM135.67,96.84h-27.66v27.66h27.66v-27.66h0ZM171.4,96.84h-27.66v27.66h27.66v-27.66ZM28.48,96.84H.82v27.66h27.66s0-27.66,0-27.66ZM64.21,61.91h-27.66v27.66h27.66v-27.66ZM99.94,61.91h-27.66v27.66h27.66v-27.66ZM135.67,61.91h-27.66v27.66h27.66v-27.66h0ZM135.67,26.97h-27.66v27.66h27.66v-27.66h0Z"/>
</svg>