<?xml version="1.0" encoding="UTF-8"?>
<svg xmlns="http://www.w3.org/2000/svg" viewBox="0 0 256 256">
  <defs>
    <style>
      .cls-1 {
        fill: #000;
        stroke-width: 0px;
      }
    </style>
  </defs>
  <g id="Layer_1" data-name="Layer 1" image-rendering="optimizeQuality" shape-rendering="geometricPrecision" text-rendering="geometricPrecision">
    <path class="cls-1" d="M256,198.41c-9.31,2.37-15.07.1-20.24-7.66l-36.75-50.85-5.31-7.04-42.92,58.06c-4.9,6.98-10.05,10.02-19.2,7.55l54.96-73.78-51.17-66.64c8.8-1.71,14.88-.84,20.28,7.04l38.12,51.48,38.4-51.2c4.92-6.98,10.21-9.64,19.04-7.07l-19.84,26.3-26.88,35c-3.2,4-2.76,6.74.18,10.6l51.33,68.19ZM.07,123.47l4.49-22.11c12.24-43.76,62.4-61.95,96.99-34.91,20.22,15.9,25.24,38.4,24.24,63.6H11.84c-1.71,45.36,30.94,72.74,72.56,58.77,14.6-4.9,23.2-16.34,27.5-30.64,2.18-7.17,5.8-8.29,12.54-6.24-3.44,17.89-11.2,32.83-27.6,42.18-24.5,14-59.48,9.47-77.88-9.98-10.96-11.29-15.49-25.59-17.52-40.89-.32-2.53-.96-4.94-1.44-7.36.04-4.14.07-8.28.07-12.42H.07ZM12.05,120.43h102.98c-.67-32.8-21.1-56.1-49.01-56.29-30.64-.24-52.64,22.5-53.97,56.29h0,0Z"/>
  </g>
</svg>