<?xml version="1.0" encoding="UTF-8"?>
<svg id="Layer_1" data-name="Layer 1" xmlns="http://www.w3.org/2000/svg" viewBox="0 0 256 256">
  <defs>
    <style>
      .cls-1 {
        fill: #de4c36;
        stroke-width: 0px;
      }
    </style>
  </defs>
  <path class="cls-1" d="M251.17,116.6L139.4,4.83c-6.43-6.44-16.87-6.44-23.31,0l-23.21,23.21,29.44,29.44c6.84-2.31,14.69-.76,20.14,4.69,5.48,5.49,7.02,13.4,4.65,20.27l28.38,28.38c6.87-2.37,14.79-.84,20.27,4.66,7.66,7.66,7.66,20.08,0,27.74-7.67,7.67-20.08,7.67-27.75,0-5.76-5.77-7.19-14.24-4.27-21.34l-26.46-26.46v69.64c1.92.95,3.67,2.2,5.19,3.71,7.66,7.66,7.66,20.08,0,27.75-7.67,7.66-20.09,7.66-27.74,0-7.66-7.67-7.66-20.09,0-27.75,1.84-1.84,4.02-3.29,6.42-4.28v-70.29c-2.41-.98-4.59-2.44-6.42-4.28-5.81-5.8-7.2-14.32-4.23-21.45l-29.02-29.03L4.83,116.08c-6.44,6.44-6.44,16.88,0,23.32l111.77,111.77c6.44,6.44,16.87,6.44,23.32,0l111.25-111.25c6.44-6.44,6.44-16.89,0-23.32"/>
</svg>