<?xml version="1.0" encoding="UTF-8"?>
<svg id="Layer_1" data-name="Layer 1" xmlns="http://www.w3.org/2000/svg" viewBox="0 0 512 512">
  <defs>
    <style>
      .cls-1 {
        fill: #f8981d;
      }

      .cls-1, .cls-2 {
        stroke-width: 0px;
      }

      .cls-2 {
        fill: #5382a1;
      }
    </style>
  </defs>
  <path class="cls-2" d="M188.81,395.96s-19.57,11.38,13.92,15.23c40.57,4.63,61.31,3.96,106.02-4.5,0,0,11.75,7.37,28.17,13.75-100.23,42.96-226.84-2.49-148.11-24.49"/>
  <path class="cls-2" d="M176.56,339.9s-21.94,16.24,11.57,19.71c43.34,4.47,77.57,4.84,136.79-6.57,0,0,8.19,8.3,21.07,12.85-121.18,35.44-256.16,2.79-169.44-25.99"/>
  <path class="cls-1" d="M279.81,244.81c24.7,28.43-6.49,54.02-6.49,54.02,0,0,62.71-32.37,33.91-72.91-26.9-37.8-47.52-56.59,64.14-121.35,0,0-175.28,43.78-91.56,140.24"/>
  <path class="cls-2" d="M412.37,437.42s14.48,11.93-15.95,21.16c-57.85,17.53-240.79,22.82-291.61.7-18.27-7.95,15.99-18.98,26.77-21.29,11.24-2.44,17.66-1.98,17.66-1.98-20.32-14.31-131.32,28.1-56.38,40.25,204.36,33.14,372.52-14.92,319.52-38.83"/>
  <path class="cls-2" d="M198.22,281.82s-93.06,22.1-32.95,30.13c25.38,3.4,75.97,2.63,123.09-1.32,38.51-3.25,77.18-10.16,77.18-10.16,0,0-13.58,5.82-23.4,12.52-94.5,24.85-277.04,13.29-224.49-12.13,44.44-21.48,80.58-19.05,80.58-19.05"/>
  <path class="cls-2" d="M365.15,375.13c96.06-49.92,51.65-97.89,20.64-91.42-7.6,1.58-10.99,2.95-10.99,2.95,0,0,2.82-4.42,8.21-6.33,61.33-21.56,108.49,63.59-19.8,97.32,0,0,1.49-1.33,1.93-2.52"/>
  <path class="cls-1" d="M307.23,0s53.2,53.22-50.46,135.05c-83.12,65.64-18.95,103.07-.03,145.84-48.52-43.78-84.13-82.31-60.24-118.18C231.56,110.06,328.7,84.53,307.23,0"/>
  <path class="cls-2" d="M207.66,510.39c92.2,5.9,233.8-3.27,237.15-46.9,0,0-6.45,16.54-76.2,29.67-78.7,14.81-175.76,13.08-233.33,3.59,0,0,11.79,9.75,72.39,13.64"/>
</svg>