<?xml version="1.0" encoding="UTF-8"?>
<svg id="Layer_1" data-name="Layer 1" xmlns="http://www.w3.org/2000/svg" viewBox="0 0 256 256">
  <defs>
    <style>
      .cls-1 {
        fill: #000;
      }

      .cls-1, .cls-2 {
        stroke-width: 0px;
      }

      .cls-2 {
        fill: #f7df1e;
      }
    </style>
  </defs>
  <rect class="cls-2" width="256" height="256"/>
  <path class="cls-1" d="M171.97,200c5.16,8.42,11.87,14.61,23.73,14.61,9.97,0,16.34-4.98,16.34-11.87,0-8.25-6.54-11.17-17.51-15.97l-6.01-2.58c-17.36-7.4-28.89-16.66-28.89-36.25,0-18.04,13.75-31.78,35.23-31.78,15.29,0,26.29,5.32,34.21,19.26l-18.73,12.03c-4.12-7.4-8.57-10.31-15.48-10.31s-11.51,4.47-11.51,10.31c0,7.22,4.47,10.14,14.79,14.61l6.01,2.58c20.44,8.76,31.98,17.7,31.98,37.79,0,21.66-17.01,33.52-39.86,33.52s-36.77-10.65-43.84-24.6l19.55-11.36ZM86.99,202.09c3.78,6.7,7.22,12.37,15.48,12.37s12.89-3.09,12.89-15.12v-81.8h24.06v82.12c0,24.91-14.6,36.25-35.92,36.25-19.26,0-30.42-9.97-36.09-21.97l19.58-11.86Z"/>
</svg>