<?xml version="1.0" encoding="UTF-8"?>
<svg id="Layer_1" data-name="Layer 1" xmlns="http://www.w3.org/2000/svg" viewBox="0 0 256 256">
  <defs>
    <style>
      .cls-1 {
        fill: #25a162;
      }

      .cls-1, .cls-2, .cls-3 {
        stroke-width: 0px;
      }

      .cls-2 {
        fill: #dc524a;
      }

      .cls-3 {
        fill: #fff;
      }
    </style>
  </defs>
  <g id="Layer_2" data-name="Layer 2">
    <path class="cls-2" d="M170.67,8.17c-12.71-3.63-29.05-7.26-43.57-7.26C56.28.91,0,57.19,0,128,0,177.02,27.23,218.78,67.18,240.57l1.82-59.91s36.31,16.34,58.1,9.08c21.79-7.26,21.79-14.52,23.6-29.05,1.82-14.52-12.71-32.68-30.87-32.68-23.6,0-38.13,3.63-38.13,3.63l-10.89-9.08,5.45-85.33,95.26-1.9-.85-27.15Z"/>
    <path class="cls-1" d="M67.18,240.57c18.16,9.08,38.13,14.52,59.91,14.52,70.81,0,128.91-56.28,128.91-127.09,0-45.39-27.23-81.7-59.91-105.3-7.26-5.45-16.34-10.89-25.42-14.52l1.82,58.1h-68.99l-3.63,39.94s78.07-18.16,79.89,54.47c1.82,50.84-47.21,54.47-70.81,56.28-30.87,0-44.35-8.92-40.72-8.92l-1.04,32.52Z"/>
    <path class="cls-3" d="M171.52,35.32c-9.08,0-95.26,1.9-95.26,1.9l-5.45,85.33,10.89,9.08s29.99-5.67,48.15-.22c16.34,7.26,20.4,16.52,20.4,32.86s-9.54,21.52-22.25,25.15c-10.89,3.63-25.46,2.04-30.9.22-7.26-1.82-28.1-8.99-28.1-8.99l-.87,28.83s10.89,7.26,34.5,9.08c23.6,1.82,54.47-1.82,72.62-25.42,16.34-21.79,14.52-79.89-39.94-87.15-18.16-1.82-32.49-.35-32.49-.35l3.44-39.6h67.18l-1.91-30.73Z"/>
  </g>
</svg>