<?xml version="1.0" encoding="UTF-8"?>
<svg id="Layer_1" data-name="Layer 1" xmlns="http://www.w3.org/2000/svg" viewBox="0 0 256 256">
  <defs>
    <style>
      .cls-1 {
        fill: #31a8ff;
      }

      .cls-1, .cls-2 {
        stroke-width: 0px;
      }

      .cls-2 {
        fill: #001e36;
      }
    </style>
  </defs>
  <g id="Layer_2" data-name="Layer 2">
    <path class="cls-2" d="M45.33,3.2h165.34c25.06,0,45.33,20.27,45.33,45.33v158.95c0,25.06-20.27,45.33-45.33,45.33H45.33c-25.06,0-45.33-20.27-45.33-45.33V48.52C0,23.46,20.27,3.2,45.33,3.2Z"/>
    <g id="LrC">
      <path class="cls-1" d="M89.86,179.62H28.95c-1.1,0-1.5-.6-1.5-1.9v-109.03c0-1.1.4-1.5,1.4-1.5h18.87c.7,0,1.1.4,1.1,1.2v89.56h44.33c1,0,1.3.5,1.1,1.5l-2.8,18.57c-.1.6-.3,1.1-.6,1.3s-.7.3-1,.3Z"/>
      <path class="cls-1" d="M105.04,94.25h16.87c1,0,1.6.5,2,1.7.3.7.6,1.6.7,2.5.2,1.1.3,2.2.4,3.29.1,1.2.1,2.5.1,3.79,2.8-3.59,6.29-6.79,10.28-9.19,4.29-2.6,9.29-3.99,14.28-3.79,1,0,1.4.5,1.4,1.5v20.77c0,.9-.5,1.2-1.5,1.2-3.39-.2-6.79,0-10.08.7-2.8.6-5.39,1.6-7.99,2.9-1.9,1-3.69,2.4-5.19,3.99v54.41c0,1.1-.4,1.5-1.3,1.5h-18.57c-1.1,0-1.5-.5-1.5-1.7v-59.11c0-2.6,0-5.19-.1-7.99,0-2.8-.1-5.59-.2-8.29-.1-2.4-.3-4.69-.6-7.09,0-.3,0-.6.2-1,.3-.1.5-.2.8-.1Z"/>
      <path class="cls-1" d="M226.75,78.48c-2.2-1-4.69-1.5-7.19-1.8-3.59-.4-7.29-.6-10.88-.6-10.48,0-19.67,2.2-27.16,6.59s-13.68,10.88-17.67,18.67c-4.19,7.89-6.19,17.27-6.19,27.76-.1,6.29.7,12.58,2.4,18.77,1.5,5.19,3.69,10.08,6.79,14.58,2.9,4.19,6.39,7.69,10.48,10.58s8.69,5.09,13.58,6.39c4.99,1.4,10.38,2.1,15.58,2.1,3.69,0,7.39-.2,10.98-.7,3-.3,5.89-1.1,8.69-2.1,1.1-.5,1.7-1.6,1.6-2.9v-15.88c.1-.5-.1-1.2-.5-1.6-.3-.2-.9-.5-1.7.1-2.4.9-4.89,1.5-7.49,1.8-3.1.3-6.19.4-9.29.4-2.8,0-5.69-.4-8.29-1.2-2.9-.7-5.59-1.9-8.09-3.39-2.7-1.6-4.89-3.69-6.69-6.19-2-2.8-3.59-5.89-4.69-9.19-1.2-4.09-1.8-8.19-1.7-12.48-.1-5.89,1.1-11.78,3.49-17.07,2.2-4.59,5.69-8.49,9.98-11.18,4.69-2.8,10.08-4.19,15.58-4.09,3.29,0,6.69.2,9.98.9,2.7.4,5.19,1.3,7.69,2.6.4.2,1,.2,1.4,0,.4-.4.7-1,.6-1.6v-16.67c0-1.1-.4-2-1.3-2.6Z"/>
    </g>
  </g>
</svg>