<?xml version="1.0" encoding="UTF-8"?>
<svg id="svg64115" xmlns="http://www.w3.org/2000/svg" viewBox="0 0 63.9 63.9">
  <defs>
    <style>
      .cls-1 {
        fill: #d00000;
      }

      .cls-2 {
        fill: #fff;
      }

      .cls-3, .cls-4 {
        fill: green;
      }

      .cls-5 {
        fill: #5b2929;
      }

      .cls-4 {
        fill-rule: evenodd;
      }
    </style>
  </defs>
  <g id="g68178">
    <g id="layer7">
      <g id="g70812">
        <g id="g72614">
          <g>
            <circle id="path71594" class="cls-1" cx="31.95" cy="31.95" r="31.01"/>
            <path class="cls-3" d="M31.95,63.9C14.33,63.9,0,49.57,0,31.95S14.33,0,31.95,0s31.95,14.33,31.95,31.95-14.33,31.95-31.95,31.95ZM31.95,1.89C15.38,1.89,1.89,15.38,1.89,31.95s13.49,30.06,30.06,30.06,30.06-13.49,30.06-30.06S48.53,1.89,31.95,1.89Z"/>
          </g>
          <g>
            <path id="path991" class="cls-3" d="M60.83,31.95c0,15.98-12.9,28.87-28.87,28.87S3.08,47.93,3.08,31.95,15.98,3.08,31.95,3.08c5.31.02,10.29,1.47,14.57,3.99,8.53,5.02,14.26,14.28,14.31,24.88Z"/>
            <path class="cls-5" d="M31.95,61.33c-16.2,0-29.37-13.18-29.37-29.37S15.76,2.58,31.95,2.58c5.22.02,10.34,1.43,14.82,4.06,8.93,5.26,14.51,14.96,14.55,25.31h0c0,16.2-13.18,29.38-29.37,29.38ZM31.95,3.58C16.31,3.58,3.58,16.31,3.58,31.95s12.73,28.37,28.37,28.37,28.37-12.73,28.37-28.37c-.04-10-5.43-19.37-14.06-24.45-4.32-2.55-9.27-3.9-14.31-3.92Z"/>
          </g>
          <g>
            <path id="path995" class="cls-2" d="M31.95,61.79c-16.49,0-29.84-13.35-29.84-29.84S15.46,2.12,31.95,2.12s29.84,13.35,29.84,29.84-13.35,29.84-29.84,29.84ZM31.95,4.04c-15.4,0-27.91,12.51-27.91,27.91s12.51,27.91,27.91,27.91,27.91-12.51,27.91-27.91S47.35,4.04,31.95,4.04Z"/>
            <path class="cls-2" d="M31.95,62.29C15.23,62.29,1.62,48.68,1.62,31.95S15.23,1.62,31.95,1.62s30.33,13.61,30.33,30.34-13.61,30.33-30.33,30.33ZM31.95,2.62C15.78,2.62,2.62,15.78,2.62,31.95s13.16,29.33,29.34,29.33,29.33-13.16,29.33-29.33S48.13,2.62,31.95,2.62ZM31.95,60.36c-15.67,0-28.41-12.75-28.41-28.41S16.29,3.54,31.95,3.54s28.41,12.75,28.41,28.41-12.75,28.41-28.41,28.41ZM31.95,4.54c-15.11,0-27.41,12.3-27.41,27.41s12.3,27.41,27.41,27.41,27.41-12.3,27.41-27.41S47.07,4.54,31.95,4.54Z"/>
          </g>
          <g id="g9094">
            <g id="g9092">
              <g>
                <path id="path9090" class="cls-4" d="M17.79,13.7s4.85,9.14,5.12,18.17c.24,7.94-4.63,18.29-4.63,18.29,0,0,15.63-.8,24.21-6.95,7.03-5.04,12.01-11.1,12.01-11.1,0,0-4.44-5.95-13.6-12.07-3.88-2.6-8.92-4.14-13.29-5.05-5.41-1.13-9.82-1.29-9.82-1.29Z"/>
                <path class="cls-2" d="M15.22,52.22l1.34-2.85c.05-.1,4.68-10.05,4.46-17.43-.26-8.47-4.86-17.26-4.9-17.35l-1.53-2.89,3.27.12c.19,0,4.63.18,10.13,1.33,5.77,1.2,10.47,3,13.96,5.33,9.32,6.23,13.87,12.26,14.06,12.52l.89,1.19-.94,1.14c-.21.25-5.22,6.3-12.37,11.43-8.93,6.4-24.55,7.27-25.22,7.3l-3.15.16ZM20.88,15.85c1.52,3.55,3.73,9.73,3.92,15.97.18,5.7-2.06,12.4-3.55,16.18,4.85-.56,14.33-2.15,20.14-6.32,4.93-3.54,8.86-7.63,10.63-9.6-1.73-1.98-5.77-6.19-12.17-10.47-3.08-2.06-7.33-3.67-12.63-4.77-2.42-.5-4.65-.81-6.34-1Z"/>
              </g>
              <g>
                <path id="path50746" class="cls-2" d="M54.55,32.12l5.66.04"/>
                <rect class="cls-2" x="55.49" y="29.31" width="3.78" height="5.66" transform="translate(24.86 89.3) rotate(-89.62)"/>
              </g>
              <g>
                <path id="path50746-7" class="cls-2" d="M6.92,17.48l12.81.04"/>
                <rect class="cls-2" x="11.44" y="11.09" width="3.78" height="12.81" transform="translate(-4.21 30.78) rotate(-89.83)"/>
              </g>
              <g>
                <path id="path50746-8" class="cls-2" d="M6.97,46.49l13.4.04"/>
                <rect class="cls-2" x="11.78" y="39.81" width="3.78" height="13.4" transform="translate(-32.88 60.05) rotate(-89.84)"/>
              </g>
            </g>
          </g>
        </g>
      </g>
    </g>
  </g>
</svg>