<?xml version="1.0" encoding="UTF-8"?>
<svg id="Layer_1" data-name="Layer 1" xmlns="http://www.w3.org/2000/svg" viewBox="0 0 256 256">
  <defs>
    <style>
      .cls-1 {
        fill: #ff6800;
      }

      .cls-1, .cls-2, .cls-3, .cls-4, .cls-5, .cls-6, .cls-7, .cls-8, .cls-9 {
        stroke-width: 0px;
      }

      .cls-1, .cls-2, .cls-3, .cls-10, .cls-5, .cls-11, .cls-8, .cls-9 {
        isolation: isolate;
      }

      .cls-1, .cls-2, .cls-3, .cls-5, .cls-8, .cls-9 {
        opacity: .6;
      }

      .cls-2 {
        fill: #7dff7a;
      }

      .cls-3 {
        fill: #29ffce;
      }

      .cls-4 {
        fill: #11557c;
      }

      .cls-10 {
        stroke: #818181;
        stroke-linecap: square;
      }

      .cls-10, .cls-11 {
        fill: none;
        opacity: .9;
        stroke-dasharray: 0 0 .41 .81;
        stroke-linejoin: round;
        stroke-width: .86px;
      }

      .cls-5 {
        fill: #004cff;
      }

      .cls-6 {
        fill: #2c2c2c;
      }

      .cls-11 {
        stroke: #858585;
        stroke-linecap: round;
      }

      .cls-7 {
        fill: #fff;
      }

      .cls-8 {
        fill: #ffc400;
      }

      .cls-9 {
        fill: #ceff29;
      }
    </style>
  </defs>
  <path class="cls-7" d="M127.95,254.12c-33.69,0-65.36-13.12-89.18-36.94S1.83,161.69,1.83,128,14.95,62.64,38.77,38.82C62.59,15,94.26,1.88,127.95,1.88s65.36,13.12,89.18,36.94c23.82,23.82,36.94,55.49,36.94,89.18s-13.12,65.36-36.94,89.18-55.49,36.94-89.18,36.94Z"/>
  <path class="cls-11" d="M127.95,127.55h126.12M127.95,127.55l89.18-89.18M127.95,127.55V1.43M127.95,127.55L38.77,38.38M127.95,127.55H1.83M127.95,127.55l-89.18,89.18M127.95,127.55v126.12M127.95,127.55l89.18,89.18"/>
  <g>
    <path class="cls-10" d="M141.96,127.55l-.42-3.39-1.22-3.19-1.96-2.8-2.58-2.24-3.04-1.55-3.32-.77-3.41.06-3.3.89-2.99,1.65-2.5,2.33-1.86,2.87-1.11,3.23-.3,3.4.53,3.37,1.33,3.14,2.05,2.73,2.65,2.15,3.1,1.44,3.35.65,3.41-.18,3.27-1,2.93-1.76,2.42-2.42,1.76-2.93,1-3.27.22-2.44h0"/>
    <path class="cls-10" d="M169.99,127.55l-.41-5.85-1.22-5.74-2.01-5.51-2.75-5.18-3.45-4.75-4.07-4.22-4.62-3.61-5.08-2.93-5.44-2.2-5.69-1.42-5.83-.61-5.86.2-5.77,1.02-5.58,1.81-5.27,2.57-4.86,3.28-4.36,3.92-3.77,4.49-3.11,4.97-2.38,5.36-1.61,5.64-.82,5.81v5.87l.82,5.81,1.61,5.64,2.38,5.36,3.11,4.97,3.77,4.49,4.36,3.93,4.86,3.28,5.27,2.57,5.58,1.81,5.78,1.02,5.86.21,5.83-.62,5.69-1.42,5.44-2.2,5.08-2.93,4.62-3.61,4.07-4.22,3.45-4.75,2.75-5.18,2.01-5.51,1.22-5.74.41-5.84h0"/>
    <path class="cls-10" d="M198.02,127.55l-.38-7.32-1.15-7.24-1.9-7.08-2.63-6.85-3.33-6.54-3.99-6.15-4.62-5.7-5.19-5.18-5.7-4.62-6.15-3.99-6.53-3.33-6.85-2.63-7.08-1.9-7.25-1.15-7.32-.38-7.32.38-7.24,1.15-7.08,1.9-6.85,2.63-6.53,3.33-6.15,3.99-5.7,4.62-5.19,5.18-4.62,5.7-3.99,6.15-3.33,6.54-2.63,6.85-1.9,7.08-1.15,7.24-.38,7.32.38,7.32,1.15,7.24,1.9,7.08,2.63,6.85,3.33,6.54,3.99,6.15,4.62,5.7,5.19,5.18,5.7,4.62,6.15,3.99,6.53,3.33,6.85,2.63,7.08,1.9,7.25,1.15,7.32.38,7.33-.38,7.24-1.15,7.08-1.9,6.85-2.63,6.53-3.33,6.15-3.99,5.7-4.62,5.19-5.18,4.62-5.7,3.99-6.15,3.33-6.54,2.63-6.85,1.9-7.08,1.15-7.24.38-7.32h0"/>
    <path class="cls-10" d="M226.04,127.55l-.54-10.25-1.61-10.14-2.65-9.92-3.68-9.58-4.66-9.15-5.59-8.61-6.46-7.98-7.26-7.26-7.98-6.46-8.61-5.59-9.15-4.66-9.58-3.68-9.92-2.66-10.14-1.61-10.25-.54-10.25.54-10.14,1.61-9.92,2.66-9.58,3.68-9.15,4.66-8.61,5.59-7.98,6.46-7.26,7.26-6.46,7.98-5.59,8.61-4.66,9.15-3.68,9.58-2.66,9.92-1.61,10.14-.54,10.25.54,10.25,1.61,10.14,2.66,9.92,3.68,9.58,4.66,9.15,5.59,8.61,6.46,7.98,7.26,7.26,7.98,6.46,8.61,5.59,9.15,4.66,9.58,3.68,9.92,2.66,10.14,1.61,10.25.54,10.25-.54,10.14-1.61,9.92-2.66,9.58-3.68,9.15-4.66,8.61-5.59,7.98-6.46,7.26-7.26,6.46-7.98,5.59-8.61,4.66-9.15,3.68-9.58,2.66-9.92,1.61-10.14.54-10.25h0"/>
  </g>
  <path class="cls-4" d="M128,256c-34.19,0-66.33-13.31-90.51-37.49S0,162.19,0,128,13.31,61.67,37.49,37.49C61.67,13.31,93.81,0,128,0s66.33,13.31,90.51,37.49c24.18,24.18,37.49,56.32,37.49,90.51s-13.31,66.33-37.49,90.51c-24.18,24.18-56.32,37.49-90.51,37.49ZM128,3.76c-33.19,0-64.39,12.92-87.85,36.39C16.68,63.61,3.76,94.81,3.76,128s12.92,64.39,36.39,87.85c23.47,23.47,54.67,36.39,87.85,36.39s64.39-12.92,87.85-36.39c23.47-23.47,36.39-54.67,36.39-87.85s-12.92-64.39-36.39-87.85C192.39,16.68,161.19,3.76,128,3.76Z"/>
  <path class="cls-5" d="M127.95,127.55l.27-.09.27-.09.27-.09.27-.09.27-.09.27-.09.27-.09.27-.09.27-.09.27-.09.27-.09.27-.09.27-.09.27-.09.27-.09.27-.09.27-.09.27-.09.27-.09.27-.09.27-.09.27-.09.27-.09.27-.09.27-.09.27-.09.27-.09.27-.09.27-.09.27-.09.27-.09.27-.09.27-.09.27-.09.27-.09.27-.09.27-.09.27-.09.27-.09.27-.09.27-.09.27-.09.27-.09.27-.09.27-.09.27-.09.27-.09.27-.09.27-.09.27-.09.27-.09.27-.09.27-.09.27-.09.27-.09.27-.09.27-.09.27-.09.27-.09.27-.09.27-.09.27-.09.27-.09.27-.09.27-.09.27-.09.27-.09.27-.09.27-.09.27-.09.27-.09.27-.09.27-.09.27-.09.27-.09.27-.09.27-.09.27-.09.27-.09.27-.09.27-.09.27-.09.27-.09.27-.09.27-.09.27-.09.27-.09.27-.09.27-.09.27-.09.27-.09.27-.09.27-.09.27-.09.27-.09.27-.09.27-.09.27-.09.27-.09.27-.09.05.09.03.08.03.08.03.08.03.08.03.08.02.08.02.08.02.08.02.08.02.08.02.08.02.08.02.08.02.08.02.08.02.08.02.08.02.08.02.08.02.08.02.08.02.08.02.08.02.08.02.08.02.09.02.09.02.09.02.09.02.09.02.09.02.09.02.09.02.09.02.09.02.09.02.09.02.09.02.09.02.09.02.09.02.09v.09s.03.09.03.09v.09s.03.09.03.09v.09s.03.09.03.09v.09s.03.09.03.09v.09s.03.09.03.09v.09s.02.09.02.09v.09s.02.09.02.09v.09s.02.09.02.09v.09s.02.09.02.09v.09s.02.09.02.09v.09s.02.09.02.09v.09s.02.09.02.09v.09s.02.09.02.09v.09s.02.09.02.09v.09s.02.09.02.09v.09s.01.09.01.09v.09s.01.09.01.09v.09s.01.09.01.09v.09s.01.09.01.09v.09s.01.09.01.09v.09s0,.09,0,.09v.09s0,.09,0,.09v.09s0,.09,0,.09v.09s0,.09,0,.09v.09s0,.09,0,.09v.09s0,.09,0,.09v.09s0,.36,0,.36h-27.75s-.28,0-.28,0Z"/>
  <path class="cls-9" d="M127.95,127.55l.3-.79.3-.79.3-.79.3-.79.3-.79.3-.79.3-.79.3-.79.3-.79.3-.79.3-.79.3-.79.3-.79.3-.79.3-.79.3-.79.3-.79.3-.79.3-.79.3-.79.3-.79.3-.79.3-.79.3-.79.3-.79.3-.79.3-.79.3-.79.3-.79.3-.79.3-.79.3-.79.3-.79.3-.79.3-.79.3-.79.3-.79.3-.79.3-.79.3-.79.3-.79.3-.79.3-.79.3-.79.3-.79.3-.79.3-.79.3-.79.3-.79.3-.79.3-.79.3-.79.3-.79.3-.79.3-.79.3-.79.3-.79.3-.79.3-.79.3-.79.3-.79.3-.79.3-.79.3-.79.3-.79.3-.79.3-.79.3-.79.3-.79.3-.79.3-.79.3-.79.3-.79.3-.79.3-.79.3-.79.3-.79.3-.79.3-.79.3-.79.3-.79.3-.79.3-.79.3-.79.3-.79.3-.79.3-.79.3-.79.3-.79.3-.79.3-.79.3-.79.3-.79.3-.79.3-.79.3-.79.3-.79.32-.85.3-.79.3-.79.25.09.25.09.25.09.25.09.25.1.25.1.25.1.25.1.25.1.24.1.24.1.24.1.24.1.24.1.24.1.24.11.24.11.24.11.24.11.24.11.24.11.24.11.24.11.24.11.24.11.24.11.24.11.24.11.24.11.24.12.24.12.24.12.24.12.24.12.24.12.24.12.24.12.24.12.23.12.23.12.23.12.23.12.23.13.23.13.23.13.23.13.23.13.23.13.23.13.23.13.23.13.23.13.23.13.23.13.23.13.23.13.23.13.23.14.23.14.23.14.23.14.23.14.23.14.22.14.22.14.22.14.22.14.22.14.22.14.22.14.22.14.22.15.22.15.22.15.22.15.22.15.22.15.22.15.22.15.22.15.22.15.21.15.21.15.21.15.21.15.21.15.21.15.21.16.21.16.21.16.21.16.21.16.21.16.21.16.21.16.21.16.21.16.21.16.21.16.21.17-.52.66-.52.66-.52.66-.52.66-.52.66-.52.66-.52.66-.52.66-.52.66-.52.66-.52.66-.52.66-.52.66-.52.67-.52.66-.52.66-.52.66-.52.66-.52.66-.52.66-.52.66-.52.66-.52.66-.52.66-.52.66-.52.66-.52.66-.52.66-.52.66-.52.66-.52.66-.52.66-.52.66-.52.66-.52.66-.52.66-.52.66-.52.66-.52.66-.52.66-.52.66-.52.66-.52.66-.52.66-.52.66-.52.66-.52.66-.52.66-.52.66-.52.66-.52.66-.52.69-.52.66-.52.66-.52.66-.52.66-.52.66-.52.66-.52.66-.52.66-.52.66-.52.66-.52.66-.52.66-.52.66-.52.66-.52.66-.52.66-.52.66-.52.66-.52.66-.52.66-.52.66-.52.66-.52.66-.52.66-.52.66-.52.66-.52.66-.52.66-.52.68-.52.66-.52.66-.52.66-.52.66-.52.66-.52.66-.52.66-.52.66-.52.66-.52.66-.52.66-.52.66-.52.66-.52.66-.52.66-.52.66-.52.66-.52.66-.52.67h0Z"/>
  <path class="cls-1" d="M127.95,127.55l-.72-.86-.72-.86-.72-.86-.72-.86-.72-.86-.72-.86-.72-.86-.72-.86-.72-.86-.72-.86-.72-.86-.72-.86-.72-.86-.72-.86-.72-.86-.72-.86-.72-.86-.72-.86-.72-.86-.72-.86-.72-.86-.72-.86-.72-.86-.72-.86-.72-.86-.72-.86-.72-.86-.72-.86-.72-.86-.72-.86-.72-.86-.72-.86-.72-.86-.72-.86-.72-.86-.72-.86-.72-.86-.72-.86-.72-.86-.72-.86-.72-.86-.72-.86-.72-.86-.72-.86-.72-.86-.72-.86-.72-.86-.72-.86-.72-.86-.72-.86-.72-.86-.72-.86-.72-.86-.72-.86-.72-.86-.72-.86-.72-.86-.72-.86-.72-.86-.72-.86-.72-.86-.72-.86-.72-.86-.72-.86-.72-.86-.72-.86-.72-.86-.72-.86-.72-.86-.72-.86-.72-.86-.72-.86-.72-.86-.72-.86-.72-.86-.72-.86-.72-.86-.72-.86-.72-.86-.72-.86-.72-.86-.72-.86-.72-.86-.72-.86-.72-.86-.72-.86-.72-.86-.72-.86-.72-.86-.72-.86-.72-.86-.72-.86-.72-.86-.72-.83-.72-.86-.72-.86-.72-.86-.72-.86-.72-.86-.72-.86.41-.34.41-.34.41-.33.41-.33.41-.33.41-.33.41-.33.42-.32.42-.32.42-.32.42-.32.42-.32.43-.31.43-.31.43-.31.43-.31.43-.31.43-.3.43-.3.44-.3.44-.3.44-.3.44-.29.44-.29.44-.29.44-.29.44-.28.45-.28.45-.28.45-.28.45-.28.45-.27.45-.27.45-.27.45-.27.46-.27.46-.26.46-.26.46-.26.46-.26.46-.26.46-.25.46-.25.47-.25.47-.25.47-.24.47-.24.47-.24.47-.24.47-.24.47-.23.47-.23.48-.23.48-.23.48-.23.48-.22.48-.22.48-.22.48-.21.48-.21.49-.21.49-.21.49-.21.49-.2.49-.2.49-.2.49-.2.49-.19.49-.19.49-.19.49-.19.5-.19.5-.18.5-.18.5-.18.5-.18.5-.17.5-.17.5-.17.5-.17.5-.17.5-.16.5-.16.5-.16.51-.15.51-.15.51-.15.51-.15.51-.14.51-.14.51-.14.51-.14.51-.14.51-.13.51-.13.51-.13.51-.13.51-.12.51-.12.51-.12.25,1.09.25,1.09.25,1.09.25,1.09.25,1.09.25,1.09.25,1.09.25,1.09.25,1.09.25,1.09.25,1.09.25,1.09.25,1.09.25,1.09.25,1.09.25,1.09.25,1.09.25,1.09.25,1.09.25,1.09.25,1.09.25,1.09.25,1.09.25,1.09.25,1.09.25,1.09.25,1.09.25,1.09.25,1.09.25,1.09.25,1.09.25,1.09.25,1.09.23,1.12.25,1.09.25,1.09.25,1.09.25,1.09.25,1.09.25,1.09.25,1.09.25,1.09.25,1.09.25,1.09.25,1.09.25,1.09.25,1.09.25,1.09.25,1.09.25,1.09.25,1.09.25,1.09.25,1.09.25,1.09.25,1.09.25,1.09.25,1.09.25,1.09.25,1.09.25,1.09.25,1.09.25,1.09.25,1.09.25,1.09.25,1.09.25,1.09.25,1.09.25,1.09.25,1.09.25,1.09.25,1.09.25,1.09.25,1.09.25,1.09.25,1.09.25,1.09.25,1.09.25,1.09.25,1.09.25,1.09.25,1.09.25,1.09.25,1.09.25,1.09.25,1.09.25,1.09.25,1.09.25,1.09.25,1.09.25,1.09.25,1.09.25,1.09.25,1.09.25,1.09.25,1.09.25,1.09.25,1.09.25,1.09.25,1.09.23,1.15h0Z"/>
  <path class="cls-8" d="M127.95,127.55l-.97.18-.97.18-.97.18-.97.18-.97.18-.97.18-.97.18-.97.18-.97.18-.96.17-.97.18-.97.18-.97.18-.97.18-.97.18-.97.18-.97.18-.97.18-.97.18-.97.18-.97.18-.95.17-.97.18-.97.18-.97.18-.96.18-.97.18-.97.18-.97.18-.97.18-.97.18-.97.18-.97.18-.97.18-.97.18-.97.18-.97.18-.97.18-.97.18-.97.18-.97.18-.97.18-.97.18-.97.18-.97.18-.97.18-.97.18-.97.18-.97.18-.94.17-.97.18-.97.18-.97.18-.97.18-.97.18-.97.18-.97.18-.97.18-.97.18-.97.18-.97.18-.97.18-.97.18-.97.18-.97.18-.97.18-.97.18-.97.18-.97.18-.97.18-.97.18-.97.18-.97.18-.97.18-.97.18-.97.18-.97.18-.97.18-.97.18-.97.18-.97.18-.97.18-.97.18-.97.18-.97.18-.93.16-.97.18-.97.18-.97.18-.96.18-.97.18-.97.18-.97.18-.97.18-.97.18-.97.18-.97.18-.97.18-.97.18-.97.18-.11-.61-.11-.61-.1-.61-.1-.61-.09-.61-.08-.61-.08-.61-.08-.61-.08-.61-.07-.61-.07-.61-.07-.61-.06-.61-.06-.61-.05-.61-.05-.62-.05-.62-.04-.62-.04-.62-.04-.62-.03-.62-.03-.62-.02-.62-.02-.62-.02-.62v-.62s-.02-.62-.02-.62v-.62s0-.62,0-.62v-.62s.01-.62.01-.62v-.62s.02-.62.02-.62l.02-.62.02-.62.03-.62.03-.62.04-.62.04-.62.04-.62.05-.62.05-.62.05-.61.06-.61.06-.61.07-.61.07-.61.07-.61.08-.61.08-.61.08-.61.09-.61.09-.61.1-.61.1-.61.1-.61.11-.61.11-.61.12-.6.12-.6.12-.6.13-.6.13-.6.13-.6.14-.6.14-.6.14-.6.15-.6.15-.6.16-.6.16-.59.17-.59.17-.59.17-.59.18-.59.18-.59.18-.59.19-.59.19-.59.19-.58.2-.58.2-.58.2-.58.21-.58.21-.58.22-.58.22-.58.22-.57.23-.57.23-.57.23-.57.24-.57.24-.57.24-.57.25-.56.25-.56.26-.56.26-.56.26-.56.27-.56.88.43.88.43.88.43.88.43.88.43.88.43.88.43.88.43.88.43.88.43.88.43.88.43.88.43.88.43.88.43.88.43.88.43.88.43.88.43.88.43.88.43.88.43.88.43.88.43.88.43.88.43.88.43.88.43.88.43.88.43.88.43.88.43.88.43.88.43.88.43.88.43.88.43.88.43.88.43.88.43.88.43.88.43.88.43.88.43.88.43.88.43.88.43.88.43.88.43.88.43.88.43.88.43.88.43.88.43.88.43.88.43.88.43.88.43.88.43.88.43.88.43.88.43.88.43.88.43.88.43.88.43.88.43.88.43.88.43.88.43.88.43.88.43.88.43.88.43.88.43.88.43.88.43.88.43.88.43.88.43.88.43.88.43.88.43.88.43.88.43.88.43.88.43.88.43.88.43.88.43.88.43.88.43.88.43.88.43.88.43.88.43.88.43.88.43.88.43.9.46h0Z"/>
  <path class="cls-3" d="M127.95,127.55l-.46.32-.46.32-.46.32-.46.32-.46.32-.46.32-.46.32-.46.31-.46.32-.46.32-.46.32-.46.32-.46.32-.46.32-.46.32-.46.32-.46.32-.46.32-.46.32-.46.32-.46.32-.46.32-.46.32-.46.32-.46.32-.46.32-.46.32-.46.32-.46.32-.46.32-.46.32-.46.32-.46.32-.46.32-.46.32-.46.32-.46.32-.46.32-.46.32-.46.32-.46.32-.46.32-.46.32-.46.32-.46.32-.46.32-.46.32-.46.32-.46.32-.46.32-.46.32-.46.32-.46.32-.46.32-.48.28-.46.32-.46.32-.46.32-.46.32-.46.32-.46.32-.46.32-.46.32-.46.32-.46.32-.46.32-.46.32-.46.32-.46.32-.46.32-.46.32-.46.32-.46.32-.46.32-.46.32-.46.32-.46.32-.46.32-.46.32-.46.32-.46.32-.46.32-.46.32-.46.32-.46.32-.46.32-.46.32-.46.32-.46.32-.46.32-.46.32-.46.32-.46.32-.46.32-.46.32-.46.32-.46.32-.46.32-.48.28-.46.32-.05-.07-.05-.07-.05-.07-.05-.07-.05-.07-.05-.07-.05-.07-.05-.07-.05-.07-.05-.07-.05-.07-.05-.07-.05-.07-.05-.07-.05-.07-.05-.07-.05-.07-.05-.07-.05-.07-.05-.07-.05-.07-.05-.07-.05-.07-.05-.07-.05-.07-.05-.07-.05-.07-.05-.07-.05-.07-.05-.07-.05-.07-.05-.07-.05-.07-.05-.07-.05-.07-.05-.07-.05-.07-.05-.07-.05-.07-.05-.07-.05-.08-.05-.08-.05-.08-.05-.08-.05-.08-.05-.08-.05-.08-.05-.08-.05-.08-.04-.08-.04-.08-.04-.08-.04-.08-.04-.08-.04-.08-.04-.08-.04-.08-.04-.08-.04-.08-.04-.08-.04-.08-.04-.08-.04-.08-.04-.08-.04-.08-.04-.08-.04-.08-.04-.08-.04-.08-.04-.08-.04-.08-.04-.08-.04-.08-.04-.08-.04-.08-.04-.08-.04-.08-.04-.08-.04-.08-.04-.08-.04-.08-.04-.08-.04-.08-.04-.08-.04-.08-.04-.08-.04-.08-.04-.08-.04-.08-.04-.08-.04-.08-.04-.08-.04-.08-.04-.08-.04-.08-.04-.08-.04-.08-.04-.08-.04-.08-.04-.08.51-.24.51-.24.51-.24.51-.24.51-.24.51-.24.51-.24.51-.24.51-.24.51-.24.51-.24.51-.24.51-.24.51-.24.51-.24.51-.24.51-.24.51-.24.51-.24.51-.24.51-.24.51-.24.51-.24.51-.24.51-.24.51-.24.51-.24.51-.24.51-.24.51-.24.51-.24.51-.24.51-.24.51-.24.51-.24.51-.24.51-.24.51-.24.51-.24.51-.24.51-.24.51-.24.51-.24.51-.24.51-.24.51-.24.51-.24.51-.24.51-.24.51-.24.51-.24.51-.24.51-.24.51-.24.51-.24.51-.24.51-.24.51-.24.51-.24.51-.24.51-.24.51-.24.51-.24.51-.24.51-.24.51-.24.51-.24.51-.24.51-.24.51-.24.51-.24.51-.24.51-.24.51-.24.51-.24.51-.24.51-.24.51-.24.51-.24.51-.24.51-.24.51-.24.51-.24.51-.24.51-.24.51-.24.51-.24.51-.24.51-.24.51-.24.51-.24.51-.24.51-.24.51-.24.51-.24.51-.24.51-.24.51-.24.51-.24.43-.2h0Z"/>
  <path class="cls-2" d="M127.95,127.55l.12.69.12.69.12.69.12.69.12.69.12.69.12.69.12.69.12.69.12.69.12.69.12.69.12.69.12.69.12.69.12.69.12.69.12.69.12.69.12.69.12.69.12.69.12.69.12.69.12.69.12.69.12.69.12.69.12.69.12.69.12.69.12.69.12.69.12.69.12.69.12.69.12.69.12.69.12.69.12.69.12.69.12.69.12.69.12.69.12.69.12.69.12.69.12.69.12.69.12.69.12.69.12.69.12.69.12.69.12.69.12.69.12.69.12.69.12.69.12.69.12.69.12.69.12.69.12.69.12.69.12.69.12.69.12.69.12.69.12.69.12.69.12.69.12.69.12.69.12.69.12.69.12.69.12.69.12.69.12.69.12.69.12.69.12.69.12.69.12.69.12.69.12.69.12.69.12.69.12.69.12.69.12.69.12.69.12.69.12.69.12.69.12.69.12.69.12.69.12.69-.27.05-.27.05-.27.04-.27.04-.27.04-.27.04-.27.04-.27.04-.27.04-.27.04-.27.04-.27.03-.27.03-.27.03-.27.03-.27.03-.27.03-.27.03-.27.03-.27.02-.27.02-.27.02-.27.02-.27.02-.27.02-.27.02-.27.02-.27.02h-.27s-.27.03-.27.03h-.27s-.27.03-.27.03h-.27s-.27.02-.27.02h-.27s-.27.02-.27.02h-.27s-.27.01-.27.01h-.27s-.27,0-.27,0h-.27s-.27,0-.27,0h-.82s-.27,0-.27,0h-.27s-.27,0-.27,0h-.27s-.27-.01-.27-.01h-.27s-.32-.11-.32-.11h-.27s-.27-.02-.27-.02h-.27s-.27-.03-.27-.03h-.28s-.27-.03-.27-.03l-.27-.02-.27-.02-.27-.02-.27-.02-.27-.02-.27-.02-.27-.02-.27-.02-.27-.02-.27-.03-.27-.03-.27-.03-.27-.03-.27-.03-.27-.03-.27-.03-.27-.04-.27-.04-.27-.04-.27-.04-.27-.04-.27-.04-.27-.04-.27-.04-.27-.04-.27-.04-.27-.05-.27-.05-.27-.05-.27-.05-.27-.05-.27-.05-.27-.05-.27-.05-.27-.05-.27-.05-.27-.06-.27-.06-.27-.06-.27-.06-.27-.06-.27-.06.16-.68.16-.68.16-.68.16-.68.16-.68.16-.68.16-.68.16-.68.16-.68.16-.68.16-.68.16-.68.16-.68.16-.68.16-.68.16-.68.16-.68.16-.68.16-.68.16-.68.16-.68.16-.68.16-.68.16-.68.16-.68.16-.68.16-.68.16-.68.16-.68.16-.68.16-.68.16-.68.16-.68.16-.68.16-.68.16-.68.16-.68.16-.68.16-.68.16-.68.16-.68.16-.68.16-.68.16-.68.16-.68.16-.68.16-.68.16-.68.16-.68.16-.68.16-.68.16-.68.16-.68.16-.68.16-.68.16-.68.16-.68.16-.68.16-.68.16-.68.16-.68.16-.68.16-.68.16-.68.16-.68.16-.68.16-.68.16-.68.16-.68.16-.68.16-.68.16-.68.16-.68.16-.68.16-.68.16-.68.16-.68.16-.68.16-.68.16-.68.16-.68.16-.68.16-.68.16-.68.16-.68.16-.68.16-.68.16-.68.16-.68.16-.68.16-.68.16-.68.16-.68.16-.68.16-.68.16-.68.16-.68.16-.68.16-.68.06-.66h0Z"/>
  <path class="cls-1" d="M127.95,127.55l.88.69.88.69.88.69.88.69.88.69.88.69.88.69.88.69.88.69.88.69.88.69.88.69.88.69.88.69.89.68.88.69.88.69.88.69.88.69.88.69.88.69.88.69.88.69.88.69.88.69.88.69.88.69.88.69.88.69.88.69.88.69.88.69.88.69.88.69.88.69.88.69.88.69.88.69.88.69.88.69.88.69.88.69.88.69.88.69.88.69.88.69.88.69.88.69.88.69.88.69.88.69.88.69.88.69.88.69.88.69.88.69.88.69.88.69.88.69.88.69.88.69.88.69.88.69.88.69.88.69.88.69.88.69.88.69.88.69.88.69.88.69.88.69.88.69.88.69.88.69.88.69.88.69.88.69.88.69.88.69.88.69.88.69.88.69.88.69.88.69.88.69.88.69.88.69.88.69.88.69.88.69.88.69.88.69.88.69.88.69.88.69.88.69.88.69.88.69.88.69-.16.21-.16.21-.16.21-.16.21-.17.21-.17.21-.17.21-.17.21-.17.2-.17.2-.17.2-.17.2-.17.2-.17.2-.17.2-.17.2-.17.2-.17.2-.17.2-.17.2-.17.2-.17.2-.17.2-.17.2-.17.2-.18.2-.18.2-.18.2-.18.2-.18.2-.18.2-.18.2-.18.2-.18.19-.18.19-.18.19-.18.19-.18.19-.18.19-.18.19-.18.19-.18.19-.18.19-.18.19-.18.19-.18.19-.18.19-.18.19-.19.19-.19.19-.19.19-.19.19-.19.19-.19.19-.19.19-.19.19-.19.19-.19.18-.19.18-.19.18-.19.18-.19.18-.19.18-.19.18-.19.18-.19.18-.19.18-.19.18-.19.18-.19.18-.19.18-.19.18-.14.14-.2.18-.2.18-.2.18-.2.18-.2.18-.2.18-.2.17-.2.17-.2.17-.2.17-.2.17-.2.17-.2.17-.2.17-.2.17-.2.17-.2.17-.2.17-.2.17-.2.17-.2.17-.2.17-.2.17-.2.17-.21.17-.21.17-.21.17-.7-.88-.7-.88-.7-.88-.7-.88-.7-.88-.7-.88-.7-.88-.7-.88-.7-.88-.7-.88-.7-.88-.7-.88-.7-.88-.7-.88-.7-.88-.7-.88-.7-.88-.7-.88-.7-.88-.7-.88-.7-.88-.7-.88-.7-.88-.7-.88-.7-.88-.68-.85-.7-.88-.7-.88-.7-.88-.7-.88-.7-.88-.7-.88-.7-.88-.7-.88-.7-.88-.7-.88-.7-.88-.7-.88-.7-.88-.7-.88-.7-.88-.7-.88-.7-.88-.7-.88-.7-.88-.7-.88-.7-.88-.7-.88-.7-.88-.7-.88-.7-.88-.7-.88-.7-.88-.7-.88-.7-.88-.7-.88-.7-.88-.7-.88-.7-.88-.7-.88-.7-.88-.7-.88-.7-.88-.7-.88-.7-.88-.7-.88-.7-.88-.7-.88-.7-.88-.7-.88-.7-.88-.7-.88-.7-.88-.7-.88-.7-.88-.7-.88-.7-.88-.7-.88-.7-.88-.7-.88-.7-.88-.7-.88-.7-.88-.7-.88-.7-.88-.7-.88-.7-.88-.7-.88-.7-.88-.7-.88-.7-.88-.7-.88-.7-.88-.7-.88-.7-.88-.7-.88-.7-.88-.7-.88-.7-.88-.63-.81h0Z"/>
  <path class="cls-6" d="M155.98,128.41h-28.03c-.47,0-.85-.4-.84-.87,0-.36.24-.68.58-.8l26.66-8.66c.45-.15.93.1,1.08.55,0,0,0,0,0,0,.94,2.89,1.41,5.89,1.41,8.92,0,.47-.38.85-.85.85h0ZM133.34,126.7h21.77c-.07-2.28-.43-4.54-1.07-6.73l-20.71,6.73Z"/>
  <path class="cls-6" d="M127.95,128.41c-.47,0-.85-.39-.85-.86,0-.1.02-.2.05-.29l29.55-78.72c.16-.44.65-.66,1.09-.5,0,0,0,0,0,0,8.35,3.13,16.15,7.55,23.11,13.11.37.29.43.83.14,1.2l-52.43,65.74c-.16.2-.41.32-.67.32ZM157.99,49.94l-27.35,72.87,48.53-60.85c-6.43-5.03-13.57-9.07-21.18-12.02Z"/>
  <path class="cls-6" d="M127.95,128.41c-.25,0-.49-.11-.65-.31L55.45,42.04c-.3-.36-.26-.9.1-1.2,0,0,0,0,0,0,13.69-11.42,29.88-19.44,47.26-23.42.46-.1.92.18,1.02.64l24.95,109.3c.09.39-.1.78-.45.96-.12.06-.25.08-.38.08ZM57.3,41.6l69.02,82.67-23.96-105c-16.52,3.91-31.93,11.55-45.06,22.32Z"/>
  <path class="cls-6" d="M31.43,145.92c-.41,0-.76-.29-.84-.7-3.74-20.41-.83-41.93,8.21-60.6.21-.42.71-.6,1.14-.4l88.38,42.56c.43.2.61.71.4,1.14-.12.25-.35.43-.62.47l-96.52,17.52c-.05.01-.1.02-.15.01ZM39.97,86.13c-8.47,17.92-11.25,38.42-7.85,57.94l93.09-16.89-85.24-41.05Z"/>
  <path class="cls-6" d="M81.87,160.33c-.28,0-.54-.14-.7-.37-1.7-2.45-3.2-5.03-4.49-7.72-.2-.42-.03-.93.4-1.14,0,0,0,0,0,0l50.5-24.32c.42-.22.93-.05,1.15.37.2.39.07.87-.29,1.11l-46.07,31.92c-.14.1-.31.15-.49.15ZM78.59,152.27c1.04,2.08,2.21,4.08,3.5,6.01l36.45-25.25s-39.95,19.24-39.95,19.24Z"/>
  <path class="cls-6" d="M127.98,198.47c-5.33,0-10.66-.59-15.81-1.77-.46-.11-.75-.56-.64-1.02l15.59-68.31c.09-.4.46-.73.86-.66.41.01.75.31.82.71l11.74,69.08c.08.47-.23.91-.7.98-3.91.66-7.88,1-11.85.99ZM113.38,195.22c8.26,1.78,16.97,2.02,25.32.71l-10.87-64s-14.45,63.29-14.45,63.29Z"/>
  <path class="cls-6" d="M197.85,216.06c-.26,0-.51-.12-.67-.32l-69.9-87.65c-.3-.37-.24-.9.13-1.2.31-.25.75-.25,1.07,0l88.43,68.91c.37.29.44.83.15,1.2-5.46,7.01-11.73,13.34-18.67,18.88-.15.12-.34.18-.53.18ZM133.11,132.66l64.87,81.34c6.35-5.15,12.12-10.98,17.2-17.39l-82.06-63.95Z"/>
</svg>