<?xml version="1.0" encoding="UTF-8"?>
<svg id="Layer_1" data-name="Layer 1" xmlns="http://www.w3.org/2000/svg" viewBox="0 0 256 256">
  <defs>
    <style>
      .cls-1 {
        fill: #689f63;
        stroke-width: 0px;
      }
    </style>
  </defs>
  <path class="cls-1" d="M128.04,256c-3.43,0-6.83-.9-9.84-2.63l-31.32-18.54c-4.68-2.62-2.4-3.54-.85-4.07,6.24-2.18,7.5-2.68,14.16-6.46.7-.4,1.62-.26,2.33.16l24.06,14.28c.87.47,2.1.47,2.91,0l93.81-54.15c.87-.49,1.43-1.5,1.43-2.54v-108.25c0-1.08-.56-2.04-1.45-2.58l-93.77-54.1c-.87-.52-2.02-.52-2.89,0l-93.75,54.1c-.91.52-1.49,1.53-1.49,2.56v108.25c0,1.03.56,2.02,1.46,2.51l25.69,14.84c13.95,6.97,22.47-1.24,22.47-9.51v-106.84c0-1.53,1.2-2.7,2.72-2.7h11.88c1.48,0,2.7,1.17,2.7,2.7v106.89c0,18.6-10.14,29.28-27.78,29.28-5.42,0-9.7,0-21.63-5.87l-24.61-14.18c-6.08-3.52-9.84-10.1-9.84-17.12v-108.25c0-7.04,3.76-13.62,9.84-17.09L118.2,2.52c5.94-3.36,13.83-3.36,19.72,0l93.78,54.19c6.06,3.5,9.84,10.05,9.84,17.09v108.25c0,7.02-3.78,13.57-9.84,17.09l-93.78,54.17c-3.01,1.74-6.41,2.63-9.89,2.63"/>
  <path class="cls-1" d="M157.02,181.41c-41.05,0-49.65-18.84-49.65-34.64,0-1.5,1.21-2.7,2.72-2.7h12.12c1.34,0,2.47.97,2.68,2.3,1.83,12.35,7.28,18.57,32.1,18.57,19.77,0,28.18-4.47,28.18-14.95,0-6.03-2.4-10.52-33.11-13.53-25.69-2.54-41.56-8.19-41.56-28.74,0-18.93,15.97-30.2,42.71-30.2,30.03,0,44.92,10.43,46.8,32.83.07.77-.21,1.53-.73,2.09-.52.54-1.24.87-2,.87h-12.19c-1.27,0-2.37-.89-2.63-2.11-2.94-12.99-10.03-17.14-29.3-17.14-21.58,0-24.09,7.51-24.09,13.15,0,6.83,2.96,8.83,32.08,12.68,28.83,3.83,42.52,9.23,42.52,29.49s-17.05,32.15-46.77,32.15"/>
</svg>