<?xml version="1.0" encoding="UTF-8"?>
<svg id="Layer_1" data-name="Layer 1" xmlns="http://www.w3.org/2000/svg" viewBox="0 0 256 256">
  <defs>
    <style>
      .cls-1 {
        fill: #4dabcf;
      }

      .cls-1, .cls-2 {
        stroke-width: 0px;
      }

      .cls-2 {
        fill: #4d77cf;
      }
    </style>
  </defs>
  <g id="Layer_1-2" data-name="Layer 1">
    <polygon class="cls-1" points="110.02 52.01 67.24 30.42 20.3 53.85 64.23 75.91 110.02 52.01"/>
    <polygon class="cls-1" points="129.63 61.91 174.47 84.54 127.94 107.91 83.94 85.81 129.63 61.91"/>
    <polygon class="cls-1" points="189.52 30.75 235.6 53.85 194.39 74.54 149.45 51.87 189.52 30.75"/>
    <polygon class="cls-1" points="169.69 20.79 128.22 0 87.18 20.47 129.92 42.03 169.69 20.79"/>
    <polygon class="cls-1" points="137.27 199.4 137.27 256 187.51 230.93 187.46 174.3 137.27 199.4"/>
    <polygon class="cls-1" points="187.44 154.54 187.38 98.51 137.27 123.42 137.27 179.47 187.44 154.54"/>
    <polygon class="cls-1" points="247.76 144.04 247.76 200.86 204.91 222.25 204.87 165.69 247.76 144.04"/>
    <polygon class="cls-1" points="247.76 124.17 247.76 68.49 204.82 89.84 204.86 145.98 247.76 124.17"/>
    <path class="cls-2" d="M119.53,123.42l-33.84-17.02v73.55s-41.39-88.07-45.23-95.98c-.49-1.02-2.53-2.14-3.05-2.41-7.42-3.9-29.17-14.91-29.17-14.91v129.94l30.08,16.08v-67.92s40.95,78.69,41.37,79.55,4.53,9.15,8.92,12.07c5.85,3.87,30.93,18.95,30.93,18.95V123.42Z"/>
  </g>
</svg>