<?xml version="1.0" encoding="UTF-8"?>
<svg id="Layer_1" data-name="Layer 1" xmlns="http://www.w3.org/2000/svg" viewBox="0 0 256 256">
  <defs>
    <style>
      .cls-1 {
        fill: #31a8ff;
      }

      .cls-1, .cls-2 {
        stroke-width: 0px;
      }

      .cls-2 {
        fill: #001e36;
      }
    </style>
  </defs>
  <g id="Layer_2" data-name="Layer 2">
    <g id="Surfaces">
      <g id="Photo_Surface" data-name="Photo Surface">
        <g id="Outline_no_shadow" data-name="Outline no shadow">
          <rect class="cls-2" y="4.57" width="256" height="246.86" rx="45.32" ry="45.32"/>
        </g>
      </g>
    </g>
    <g id="Outlined_Mnemonics_Logos" data-name="Outlined Mnemonics Logos">
      <g id="Ps">
        <path class="cls-1" d="M53.19,176.94v-108.08c0-.79.34-1.18,1.02-1.18,1.8,0,3.94-.03,6.43-.08,2.48-.06,5.16-.11,8.04-.17,2.88-.06,5.92-.11,9.13-.17,3.21-.06,6.4-.08,9.56-.08,7.35-.19,14.67.9,21.65,3.21,5.29,1.79,10.12,4.74,14.12,8.63,3.4,3.37,6.02,7.44,7.7,11.92,1.58,4.36,2.38,8.97,2.37,13.62.32,7.92-1.87,15.73-6.26,22.33-4.2,5.89-10.1,10.34-16.91,12.77-7.59,2.73-15.61,4.08-23.68,3.98-2.48,0-4.23-.03-5.24-.08-1.02-.06-2.54-.08-4.57-.08v33.32c.1.74-.41,1.42-1.14,1.52-.13.02-.25.02-.38,0h-20.64c-.79,0-1.19-.45-1.19-1.35ZM76.54,87.97v35.01c1.46.11,2.82.17,4.06.17h5.58c4.09.06,8.17-.51,12.09-1.69,3.35-1,6.35-2.93,8.63-5.58,2.36-3.1,3.53-6.94,3.3-10.82.09-3.27-.76-6.5-2.45-9.3-1.78-2.71-4.35-4.81-7.36-6-3.93-1.53-8.13-2.25-12.35-2.11-2.71,0-5.1.03-7.19.08-2.09.06-3.53.14-4.31.25Z"/>
        <path class="cls-1" d="M199.04,116.22c-3.92-1.61-8.01-2.8-12.19-3.55-3.86-.89-7.8-1.34-11.75-1.35-2.14-.06-4.28.2-6.34.76-1.32.29-2.48,1.04-3.3,2.11-.55.86-.84,1.86-.84,2.87.03.99.39,1.94,1.01,2.71.99,1.16,2.2,2.1,3.55,2.79,2.41,1.3,4.9,2.46,7.44,3.47,5.68,1.9,11.1,4.49,16.15,7.7,3.44,2.17,6.29,5.17,8.29,8.71,1.68,3.36,2.52,7.07,2.45,10.82.1,4.96-1.31,9.83-4.06,13.95-2.94,4.19-7.02,7.45-11.75,9.39-6.04,2.43-12.52,3.58-19.03,3.38-4.8.05-9.59-.41-14.29-1.35-3.92-.69-7.75-1.82-11.42-3.38-.75-.39-1.22-1.18-1.18-2.03v-18.27c-.04-.36.12-.72.42-.93.3-.17.67-.13.93.08,4.29,2.39,8.9,4.13,13.7,5.16,4.04,1.01,8.18,1.55,12.35,1.61,2.98.19,5.97-.34,8.71-1.52,1.72-.79,2.81-2.51,2.79-4.4-.15-1.73-1.08-3.29-2.54-4.23-3.2-2.1-6.67-3.75-10.32-4.91-5.31-1.85-10.35-4.41-14.97-7.61-3.31-2.3-6.03-5.34-7.95-8.88-1.67-3.33-2.51-7.02-2.46-10.74,0-4.48,1.22-8.87,3.55-12.69,2.66-4.21,6.48-7.56,11-9.64,5.25-2.87,11.14-4.34,17.12-4.27,4.75-.25,9.52-.18,14.26.21,3.86.79,7.61,2.04,11.17,3.73.47.13.84.48,1.01.93.11.41.17.84.17,1.27v17.08c.02.4-.17.79-.51,1.01-.36.23-.82.23-1.19,0Z"/>
      </g>
    </g>
  </g>
</svg>