<?xml version="1.0" encoding="UTF-8"?>
<svg id="Layer_1" data-name="Layer 1" xmlns="http://www.w3.org/2000/svg" viewBox="0 0 256 256">
  <defs>
    <style>
      .cls-1 {
        fill: #000;
      }

      .cls-1, .cls-2, .cls-3 {
        stroke-width: 0px;
      }

      .cls-2 {
        fill: #336791;
      }

      .cls-3 {
        fill: #fff;
      }
    </style>
  </defs>
  <g id="Layer_3">
    <g>
      <path class="cls-1" d="M186.33,183.49c1.55-12.9,1.08-14.79,10.69-12.7l2.44.21c7.39.34,17.05-1.19,22.73-3.83,12.22-5.67,19.47-15.14,7.42-12.65-27.49,5.67-29.38-3.64-29.38-3.64,29.03-43.07,41.16-97.74,30.69-111.12-28.57-36.5-78.01-19.24-78.84-18.79l-.26.05c-5.43-1.13-11.51-1.8-18.34-1.91-12.44-.2-21.88,3.26-29.04,8.69,0,0-88.21-36.34-84.11,45.7.87,17.45,25.02,132.07,53.82,97.45,10.53-12.66,20.7-23.36,20.7-23.36,5.05,3.36,11.1,5.07,17.44,4.45l.49-.42c-.15,1.57-.09,3.11.2,4.93-7.42,8.29-5.24,9.74-20.07,12.8-15.01,3.09-6.19,8.6-.44,10.04,6.98,1.75,23.12,4.22,34.03-11.05l-.43,1.74c2.91,2.33,2.71,16.73,3.13,27.03.41,10.29,1.1,19.9,3.2,25.56,2.1,5.66,4.57,20.25,24.07,16.07,16.29-3.49,28.75-8.52,29.88-55.26"/>
      <path class="cls-1" d="M150.01,256c-10.81,0-18-4.33-22.41-8.49-6.45-6.09-8.94-13.7-10.27-17.79-.16-.48-.29-.92-.43-1.3-2.78-7.5-3.7-17.67-4.22-30.64-.02-.52-.04-1.06-.06-1.6-7.47,1.59-15.63,1.37-24.17-.76-4.49-1.12-8.39-2.94-11.55-5.27-9.45,5.48-18.14,3.75-22.14,2.42-9.64-3.21-24.1-12.92-38.44-59.88-7.47-24.47-12.05-49.61-12.49-58.35-1.41-28.13,6.47-48.47,23.42-60.44C51.82-3.45,86.43,4.43,102.44,9.56c9.16-4.81,19.64-7.14,31.29-6.96,5.96.1,11.68.58,17.06,1.45C157.64,2.07,168.71-.14,181.28,0c26.07.31,47.73,10.54,62.63,29.59,8.79,11.23,9.62,31,2.45,58.73-4.26,16.5-11.06,33.83-19.46,49.9,18.41-3.48,23.62,9.27,24.48,11.89,3.89,11.79-4.43,23.77-22.26,32.04-7.78,3.61-18.19,5.23-26.41,5.39-.88,23.35-4.67,38.64-12.14,49.28-9.5,13.53-23.28,16.48-30.68,18.07-3.59.77-6.88,1.11-9.9,1.11ZM150.02,222.97h0c.58,0,1.53-.07,2.96-.37,7.23-1.55,9.05-2.59,10.57-4.75,2.56-3.65,5.72-12.63,6.26-34.76l.02-.79.37-3.1c.94-8.07,1.91-16.4,9.62-21.91,1.44-1.03,2.92-1.8,4.39-2.37-.06-.25-.12-.5-.17-.75l-1.38-6.78,3.87-5.74c11.71-17.37,21.27-38.02,26.93-58.15,5.79-20.58,4.9-31.4,4.02-34.09-19.65-24.36-53.32-15-58.7-13.3l-1.15.63-6.02,1.1-3.16-.66c-4.58-.95-9.71-1.48-15.25-1.57-7.74-.13-13.89,1.62-18.79,5.34l-7.53,5.71-8.74-3.6c-9.04-3.67-38.04-11.99-51.87-2.18-7.08,5.03-10.26,15.72-9.46,31.79.27,5.33,4,26.29,10.19,47.34,6.87,23.38,12.79,33.9,16.09,38.4,10.13-12.04,19.37-21.78,19.77-22.21l9.56-10.05,11.55,7.68c.69.46,1.59.95,2.66,1.31l26.54-22.67-3.98,40.75c0,.06,0,.3.08.79l1.2,7.72-3.19,3.56,1.89.87,7.19-8.99c8.38,6.71,8.7,18.08,9.14,33.81.05,1.88.1,3.72.17,5.45.44,10.86,1.17,17.75,2.19,20.48.27.74.56,1.59.86,2.53.31.95.83,2.55,1.29,3.51ZM233.43,170.61h0,0ZM217.37,49.12h0Z"/>
    </g>
    <path class="cls-2" d="M229.6,154.53c-27.49,5.67-29.38-3.64-29.38-3.64,29.03-43.07,41.16-97.74,30.69-111.12-28.57-36.5-78.02-19.24-78.84-18.79l-.27.05c-5.43-1.13-11.51-1.8-18.34-1.91-12.44-.2-21.87,3.26-29.03,8.69,0,0-88.21-36.34-84.11,45.71.87,17.45,25.02,132.07,53.82,97.45,10.53-12.66,20.7-23.36,20.7-23.36,5.05,3.36,11.1,5.07,17.44,4.45l.49-.42c-.15,1.57-.08,3.11.2,4.93-7.42,8.29-5.24,9.74-20.07,12.8-15.01,3.09-6.19,8.6-.44,10.04,6.98,1.75,23.12,4.22,34.03-11.05l-.44,1.74c2.91,2.33,4.95,15.14,4.61,26.76-.34,11.62-.57,19.59,1.72,25.83,2.29,6.23,4.57,20.25,24.07,16.07,16.29-3.49,24.73-12.54,25.91-27.63.83-10.73,2.72-9.14,2.84-18.73l1.51-4.54c1.74-14.54.28-19.24,10.31-17.05l2.44.21c7.39.34,17.06-1.19,22.73-3.83,12.22-5.67,19.47-15.14,7.42-12.65h0Z"/>
    <path class="cls-3" d="M151.08,245.46c-17.85,0-23.62-14.44-25.69-19.61-3.69-9.22-3.76-44.02-3.23-63.13.08-2.99,2.53-5.35,5.5-5.35.05,0,.1,0,.16,0,3.04.09,5.43,2.62,5.35,5.66-.86,30.78.57,54.04,2.45,58.74,3.1,7.74,7.31,15.04,21.55,11.99,13.65-2.93,18.25-7.57,20.52-20.72,1.85-10.7,5.5-41.16,5.95-47.18.23-3.03,2.87-5.31,5.9-5.08,3.03.23,5.31,2.87,5.08,5.9-.47,6.32-4.14,37.01-6.08,48.22-3.05,17.7-10.93,25.73-29.06,29.61-3.06.66-5.85.95-8.39.95Z"/>
    <path class="cls-3" d="M63.03,182.61c-1.85,0-3.53-.34-4.99-.83-6.59-2.2-12.67-8.71-18.57-19.89-4.44-8.42-8.76-19.44-12.82-32.76-7.12-23.31-11.63-47.73-12.03-55.69-1.21-24.12,5.12-41.26,18.8-50.96,26.72-18.93,71.08-1.15,72.95-.38,2.81,1.15,4.16,4.36,3.01,7.18-1.15,2.81-4.36,4.16-7.17,3.01h0c-.4-.16-40.67-16.27-62.45-.82-10.39,7.38-15.15,21.31-14.15,41.41.33,6.51,4.47,29.79,11.56,53.03,11.76,38.53,21.61,44.51,24.35,45.42,1,.33,3.64,1.22,8.18-4.24,10.53-12.66,19.91-22.47,20.3-22.88,2.1-2.2,5.59-2.27,7.78-.17,2.19,2.1,2.27,5.59.17,7.78-.09.1-9.52,9.95-19.78,22.3-5.44,6.54-10.76,8.47-15.14,8.47Z"/>
    <path class="cls-3" d="M200.03,156.05c-1.06,0-2.13-.3-3.07-.94-2.52-1.7-3.19-5.12-1.49-7.64,30.16-44.75,38.2-95.34,30.92-104.65-24.89-31.81-68.01-18.57-72.08-17.21-.22.1-.45.19-.68.26-3.14.98-5.79-.74-6.79-2.96-1.15-2.54-.21-5.54,2.17-6.98,1.54-.93,15.32-5.44,31.84-5.26,22.67.24,41.42,9.01,54.21,25.36,13.23,16.91-1.86,75.15-30.46,117.59-1.06,1.58-2.8,2.43-4.57,2.43Z"/>
    <path class="cls-3" d="M201.37,176.2c-5.26,0-10.1-.77-13.24-2.64-3.69-2.21-4.41-5.33-4.5-6.99-.66-11.67,4.64-16.03,8.81-17.89-.01-.01-.02-.03-.03-.04-2.26-2.83-5.36-6.7-7.78-12.57-.31-.74-1.51-2.9-2.67-4.98-7.86-14.09-22.48-40.32-12.19-55.03,4.51-6.44,12.5-9.3,24.32-8.64-2.15-5.19-6.19-12.87-12.6-20.32-12.75-14.82-29-22.49-48.29-22.81-12.17-.21-22.07,3.49-29.49,10.98-16.95,17.08-16.4,48.52-16.39,48.83.07,3.04-2.33,5.56-5.36,5.64-3.01.08-5.56-2.32-5.64-5.35-.04-1.48-.72-36.37,19.54-56.83,9.62-9.72,22.29-14.52,37.53-14.27,28.15.46,46.26,14.77,56.5,26.68,11.82,13.76,16.7,28.03,17.11,32.42.43,4.51-2.64,6.38-4.52,6.76l-1.99.05c-11.29-1.81-19-.68-21.7,3.18-6.34,9.06,7.56,33.98,12.79,43.36,1.61,2.89,2.68,4.8,3.23,6.14,1.82,4.42,4.15,7.33,6.2,9.89,1.78,2.22,3.47,4.33,4.23,6.89.75.64,5.49,3.77,23.08.14,8.49-1.75,11.46,1.44,12.44,4.43,3.06,9.25-14.43,17.68-16.43,18.61-5.3,2.46-14.64,4.37-22.95,4.37ZM194.57,164.48c4.19,1.45,17.84.74,25.11-2.63.54-.25,1.06-.51,1.56-.76-9.79,1.09-17.09.09-21.76-2.99-.07-.04-.13-.09-.2-.13-.16.05-.31.09-.48.14-2.62.74-4.28,1.2-4.24,6.38Z"/>
    <path class="cls-3" d="M102.35,185.88c-3.64,0-7.46-.49-11.42-1.48-5.62-1.41-12.15-5.12-12.03-10.96.15-7.22,9.59-9.17,12.69-9.81,9.73-2,10.19-2.59,13.19-6.39.98-1.25,2.21-2.8,3.89-4.68,6.44-7.2,12.77-4.58,15.15-3.6,4.02,1.67,7.36,5.63,8.71,10.34,1.23,4.29.59,8.63-1.75,11.9-6.9,9.66-16.76,14.68-28.42,14.68ZM95.27,174.1c11.49,2.4,20.41-.72,26.54-9.3.37-.52.42-1.45.12-2.47-.45-1.57-1.56-2.88-2.34-3.2-.34-.14-1.06-.44-1.3-.44,0,0-.49.16-1.43,1.21,0,0,0,0,0,0-1.45,1.62-2.51,2.97-3.45,4.15-4.55,5.78-7.08,7.67-18.15,10.06ZM112.76,156.22h0,0Z"/>
    <path class="cls-3" d="M112.27,161.58c-2.57,0-4.83-1.8-5.38-4.36-7.9-.66-15.42-4.28-21.23-10.34-7.93-8.28-11.54-19.73-9.91-31.42,1.63-11.69,1.02-22.05.69-27.62-.1-1.62-.17-2.79-.16-3.65.01-1.65.03-5.07,10.15-10.2,3.29-1.67,9.89-4.58,17.15-5.33,12.57-1.3,21.22,4.58,23.72,16.15,6.24,28.84.46,41.68-3.76,51.05-.74,1.65-1.45,3.21-1.99,4.68l-.51,1.37c-2.04,5.48-3.81,10.21-3.33,13.34.46,3-1.6,5.81-4.61,6.28-.28.04-.56.06-.84.06ZM87.38,86.17c.02.32.04.66.06,1.01.35,5.95,1.01,17.03-.78,29.8-1.17,8.33,1.37,16.45,6.95,22.28,3.95,4.12,9.02,6.57,14.29,7,.76-2.67,1.78-5.41,2.82-8.2l.5-1.35c.68-1.82,1.45-3.55,2.27-5.37,3.79-8.42,8.51-18.9,3.04-44.2-1.14-5.25-3.78-6.61-5.97-7.21-7.58-2.07-19.42,3.54-23.2,6.25Z"/>
    <g>
      <path class="cls-3" d="M103.97,83.74c-.16,1.11,2.04,4.09,4.91,4.49,2.86.4,5.31-1.92,5.46-3.04.16-1.11-2.04-2.34-4.91-2.74-2.86-.4-5.31.18-5.46,1.29h0Z"/>
      <path class="cls-3" d="M109.53,90.1c-.3,0-.61-.02-.91-.06-1.98-.27-3.97-1.51-5.32-3.3-.62-.82-1.32-2.05-1.15-3.25.07-.52.33-1.26,1.16-1.89,1.3-.98,3.68-1.35,6.38-.97,1.61.22,3.11.69,4.23,1.32,2.2,1.23,2.35,2.72,2.24,3.49-.16,1.14-1.1,2.4-2.51,3.35-1.27.86-2.71,1.31-4.12,1.31ZM106.08,84.32c.52.77,1.67,1.9,3.05,2.09,1.38.19,2.56-.62,3.11-1.19-.52-.31-1.54-.74-3.06-.95-1.44-.2-2.5-.09-3.1.06Z"/>
    </g>
    <g>
      <path class="cls-3" d="M191.1,81.46c.16,1.11-2.04,4.09-4.91,4.49-2.86.4-5.31-1.92-5.47-3.04-.15-1.11,2.04-2.34,4.91-2.74s5.31.18,5.47,1.29h0Z"/>
      <path class="cls-3" d="M185.54,86.91c-3.03,0-5.51-2.41-5.72-3.87-.27-2.01,2.76-3.37,5.69-3.78,2.93-.41,6.22.07,6.5,2.08h0c.15,1.05-.71,2.38-1.56,3.27-.69.72-2.14,1.97-4.12,2.25-.26.04-.53.05-.78.05ZM187.38,80.96c-.48,0-1.03.03-1.62.12-2.69.37-4.06,1.41-4.12,1.73.08.52,2.02,2.57,4.43,2.23,2.4-.33,4.1-2.8,4.12-3.44-.15-.23-1.14-.64-2.81-.64Z"/>
    </g>
    <path class="cls-3" d="M195.22,147.76c-1.05,0-2.12-.3-3.06-.93-2.53-1.69-3.2-5.11-1.51-7.64,6.22-9.29,5.1-18.63,3.91-28.52-.52-4.3-1.05-8.74-.91-13.1.14-4.44.72-8.22,1.24-11.55.63-4.11,1.18-7.66.95-11.97-.16-3.04,2.16-5.63,5.2-5.79,3.03-.16,5.63,2.16,5.79,5.2.29,5.45-.39,9.92-1.06,14.24-.49,3.17-.99,6.46-1.11,10.23-.11,3.52.35,7.36.84,11.43,1.31,10.91,2.8,23.28-5.69,35.96-1.06,1.59-2.8,2.44-4.58,2.44Z"/>
  </g>
</svg>