<?xml version="1.0" encoding="UTF-8"?>
<svg id="Layer_1" data-name="Layer 1" xmlns="http://www.w3.org/2000/svg" xmlns:xlink="http://www.w3.org/1999/xlink" viewBox="0 0 256 256">
  <defs>
    <style>
      .cls-1 {
        fill: url(#linear-gradient);
      }

      .cls-1, .cls-2, .cls-3, .cls-4, .cls-5, .cls-6, .cls-7 {
        stroke-width: 0px;
      }

      .cls-2 {
        fill: #000;
      }

      .cls-3 {
        fill: url(#linear-gradient-5);
      }

      .cls-4 {
        fill: url(#linear-gradient-2);
      }

      .cls-5 {
        fill: url(#linear-gradient-3);
      }

      .cls-6 {
        fill: #fff;
      }

      .cls-7 {
        fill: url(#linear-gradient-4);
      }
    </style>
    <linearGradient id="linear-gradient" x1="91.42" y1="159.26" x2="243.77" y2="159.26" gradientTransform="translate(0 258) scale(1 -1)" gradientUnits="userSpaceOnUse">
      <stop offset="0" stop-color="#21d789"/>
      <stop offset="1" stop-color="#07c3f2"/>
    </linearGradient>
    <linearGradient id="linear-gradient-2" x1="-89.85" y1="41.98" x2="223.86" y2="273.55" gradientTransform="translate(0 258) scale(1 -1)" gradientUnits="userSpaceOnUse">
      <stop offset=".01" stop-color="#fcf84a"/>
      <stop offset=".11" stop-color="#a7eb62"/>
      <stop offset=".21" stop-color="#5fe077"/>
      <stop offset=".27" stop-color="#32da84"/>
      <stop offset=".31" stop-color="#21d789"/>
      <stop offset=".58" stop-color="#21d789"/>
      <stop offset=".6" stop-color="#21d789"/>
      <stop offset=".69" stop-color="#20d68c"/>
      <stop offset=".76" stop-color="#1ed497"/>
      <stop offset=".83" stop-color="#19d1a9"/>
      <stop offset=".9" stop-color="#13ccc2"/>
      <stop offset=".97" stop-color="#0bc6e1"/>
      <stop offset="1" stop-color="#07c3f2"/>
    </linearGradient>
    <linearGradient id="linear-gradient-3" x1="34.14" y1="-26" x2="86.46" y2="138.19" gradientTransform="translate(0 258) scale(1 -1)" gradientUnits="userSpaceOnUse">
      <stop offset="0" stop-color="#21d789"/>
      <stop offset=".16" stop-color="#24d788"/>
      <stop offset=".3" stop-color="#2fd886"/>
      <stop offset=".44" stop-color="#41da82"/>
      <stop offset=".56" stop-color="#5adc7d"/>
      <stop offset=".69" stop-color="#7ae077"/>
      <stop offset=".81" stop-color="#a1e36e"/>
      <stop offset=".93" stop-color="#cfe865"/>
      <stop offset="1" stop-color="#f1eb5e"/>
    </linearGradient>
    <linearGradient id="linear-gradient-4" x1="103.3" y1="116.83" x2="217.16" y2="269.91" gradientTransform="translate(0 258) scale(1 -1)" gradientUnits="userSpaceOnUse">
      <stop offset="0" stop-color="#21d789"/>
      <stop offset=".06" stop-color="#24d788"/>
      <stop offset=".11" stop-color="#2fd886"/>
      <stop offset=".16" stop-color="#41da82"/>
      <stop offset=".21" stop-color="#5add7d"/>
      <stop offset=".25" stop-color="#79e077"/>
      <stop offset=".26" stop-color="#7ce076"/>
      <stop offset=".5" stop-color="#8ce173"/>
      <stop offset=".92" stop-color="#b2e56b"/>
    </linearGradient>
    <linearGradient id="linear-gradient-5" x1="277.54" y1="97.27" x2="48.12" y2="99.39" gradientTransform="translate(0 258) scale(1 -1)" gradientUnits="userSpaceOnUse">
      <stop offset=".39" stop-color="#fcf84a"/>
      <stop offset=".54" stop-color="#ecf451"/>
      <stop offset=".83" stop-color="#c2e964"/>
      <stop offset=".92" stop-color="#b2e56b"/>
    </linearGradient>
  </defs>
  <g>
    <polygon class="cls-1" points="179.57 40.23 254.17 102.77 227.47 157.26 182.13 144.82 143.36 144.82 179.57 40.23"/>
    <polygon class="cls-4" points="104.23 80.82 89.6 157.26 88.14 183.59 51.93 199.31 0 204.8 15.73 39.13 109.35 0 167.13 38.03 104.23 80.82"/>
    <polygon class="cls-5" points="104.23 80.82 111.18 228.57 87.77 256 0 204.8 72.05 97.28 104.23 80.82"/>
    <polygon class="cls-7" points="200.78 69.85 111.91 69.85 190.54 0 200.78 69.85"/>
    <polygon class="cls-3" points="256 228.94 177.74 255.63 73.87 226.38 104.23 80.82 116.3 69.85 179.57 64 173.71 127.63 224.18 108.25 256 228.94"/>
  </g>
  <g>
    <rect class="cls-2" x="49.01" y="49.01" width="157.99" height="157.99"/>
    <rect class="cls-6" x="64" y="177.37" width="59.25" height="9.87"/>
    <path class="cls-6" d="M63.27,69.85h26.7c15.73,0,25.23,9.14,25.23,22.67v.37c0,14.99-11.7,23.04-26.33,23.04h-10.97v19.38h-14.26v-65.46h-.37ZM89.23,102.77c7.31,0,11.34-4.39,11.34-9.87v-.37c0-6.58-4.39-9.87-11.7-9.87h-10.97v20.11s11.34,0,11.34,0Z"/>
    <path class="cls-6" d="M121.05,102.77h0c0-18.65,13.9-34.01,34.01-34.01,12.43,0,19.75,4.02,25.97,10.24l-9.14,10.61c-5.12-4.75-10.24-7.31-16.82-7.31-10.97,0-19.02,9.14-19.02,20.48v-.37c0,11.34,7.68,20.48,19.02,20.48,7.31,0,12.07-2.93,17.19-7.68l9.14,9.14c-6.58,7.31-14.26,11.7-26.7,11.7-19.38.37-33.65-14.63-33.65-33.28"/>
  </g>
</svg>