<?xml version="1.0" encoding="UTF-8"?>
<svg id="svg01" xmlns="http://www.w3.org/2000/svg" viewBox="0 0 600 600">
  <defs>
    <style>
      .cls-1 {
        fill: #387eb8;
      }

      .cls-1, .cls-2, .cls-3 {
        stroke-width: 0px;
      }

      .cls-2 {
        fill: #ffc331;
      }

      .cls-3 {
        fill: #fff;
      }
    </style>
  </defs>
  <g id="layer1">
    <path id="path101" class="cls-1" d="M300,156.52H65.22S0,156.52,0,300s65.22,143.48,65.22,143.48h65.22v-65.22c0-52.17,39.13-91.3,91.3-91.3h156.44c39.22,0,65.3-26.09,65.84-65.84s-.54-155.9-.54-155.9c0,0,0-65.22-143.48-65.22s-143.48,65.22-143.48,65.22v65.22h143.48v26.09Z"/>
    <path id="path102" class="cls-2" d="M300,443.48h234.78s65.22,0,65.22-143.48-65.22-143.48-65.22-143.48h-65.22v65.22c0,52.17-39.13,91.3-91.3,91.3h-156.52c-39.13,0-65.22,26.09-65.22,65.22v156.52s0,65.22,143.48,65.22,143.48-65.22,143.48-65.22v-65.22h-143.48v-26.09Z"/>
    <circle id="path103" class="cls-3" cx="221.74" cy="65.22" r="26.09"/>
    <circle id="path104" class="cls-3" cx="378.26" cy="534.78" r="26.09"/>
  </g>
</svg>