<?xml version="1.0" encoding="UTF-8"?>
<svg id="Layer_1" data-name="Layer 1" xmlns="http://www.w3.org/2000/svg" viewBox="0 0 256 256">
  <defs>
    <style>
      .cls-1 {
        fill: #f89939;
      }

      .cls-1, .cls-2, .cls-3 {
        stroke-width: 0px;
      }

      .cls-2 {
        fill: #3499cd;
      }

      .cls-3 {
        fill: #010101;
      }

      .cls-4 {
        fill: #fff;
        font-family: ArialMT, Arial;
        font-size: 21.31px;
        isolation: isolate;
      }
    </style>
  </defs>
  <g id="g3">
    <path id="path5" class="cls-1" d="M196.36,176.29c31.27-31.26,36.46-76.75,11.61-101.61-24.85-24.85-70.34-19.66-101.6,11.61-31.26,31.26-22.22,90.99-11.6,101.61,8.58,8.58,70.34,19.66,101.6-11.61h0Z"/>
    <path id="path7" class="cls-2" d="M68.07,131.11c-18.14-18.14-44.53-21.16-58.96-6.73-14.42,14.42-11.41,40.82,6.74,58.96,18.14,18.14,52.8,12.9,58.95,6.73,4.98-4.97,11.41-40.82-6.73-58.96Z"/>
  </g>
  <g id="g9">
    <g id="g11">
      <path id="path13" class="cls-3" d="M130.65,168.62c-3.2,2.95-6.02,5.13-8.43,6.52-2.42,1.4-4.72,2.1-6.91,2.1-2.52,0-4.56-.98-6.1-2.93-1.55-1.96-2.32-4.58-2.32-7.89,0-4.95,1.07-10.89,3.22-17.82,2.14-6.93,4.75-13.32,7.81-19.16l8.98-3.33c.28-.09.5-.14.64-.14.68,0,1.24.5,1.68,1.5.44,1,.66,2.35.66,4.05,0,4.81-1.11,9.46-3.33,13.97-2.22,4.5-5.68,9.31-10.39,14.43-.19,2.45-.28,4.14-.28,5.06,0,2.05.38,3.68,1.13,4.88.76,1.2,1.76,1.8,3.01,1.8s2.63-.46,4.07-1.38c1.44-.92,3.63-2.83,6.57-5.73v4.06h0ZM117.11,154.8c2.99-3.33,5.42-7.06,7.28-11.19,1.86-4.13,2.79-7.68,2.79-10.66,0-.87-.13-1.57-.39-2.1-.26-.53-.59-.8-.99-.8-.87,0-2.14,2.17-3.8,6.51-1.66,4.34-3.29,10.42-4.9,18.24h0Z"/>
      <path id="path15" class="cls-3" d="M157.1,168.62c-2.99,2.95-5.68,5.13-8.06,6.52-2.38,1.4-5.01,2.1-7.88,2.1-3.21,0-5.79-1.03-7.76-3.07-1.97-2.05-2.95-4.75-2.95-8.1,0-5,1.73-9.52,5.2-13.56,3.46-4.04,7.31-6.06,11.52-6.06,2.19,0,3.95.57,5.27,1.7,1.32,1.13,1.98,2.62,1.98,4.45,0,4.88-5.19,8.84-15.56,11.88.94,4.59,3.4,6.89,7.39,6.89,1.56,0,3.04-.42,4.45-1.25,1.42-.84,3.55-2.7,6.4-5.57v4.06h0ZM138.58,162.08c6.03-1.7,9.05-4.83,9.05-9.4,0-2.26-.83-3.39-2.47-3.39-1.56,0-3.04,1.18-4.45,3.55-1.42,2.37-2.12,5.45-2.12,9.24h0Z"/>
      <path id="path17" class="cls-3" d="M194.86,168.62c-3.77,3.58-6.47,5.92-8.1,7-1.63,1.08-3.18,1.62-4.67,1.62-3.72,0-5.48-3.29-5.27-9.86-2.36,3.37-4.53,5.86-6.52,7.46-1.99,1.6-4.05,2.4-6.17,2.4s-3.83-.97-5.28-2.92-2.17-4.33-2.17-7.16c0-3.53.97-6.9,2.91-10.11,1.95-3.21,4.44-5.8,7.48-7.78,3.04-1.98,5.73-2.97,8.06-2.97,2.95,0,5.01,1.36,6.19,4.07l7.23-3.99h1.98l-3.12,10.36c-1.6,5.21-2.41,8.78-2.41,10.71s.72,3.04,2.16,3.04c.92,0,1.93-.49,3.04-1.47s2.66-2.47,4.66-4.47v4.06h0ZM168.98,170.57c2.36,0,4.58-2.01,6.67-6.03,2.09-4.02,3.13-7.73,3.13-11.12,0-1.32-.3-2.35-.88-3.09-.59-.74-1.38-1.11-2.37-1.11-2.36,0-4.59,2-6.7,6.01-2.11,4.01-3.17,7.7-3.17,11.06,0,1.27.31,2.31.94,3.1.62.79,1.42,1.18,2.38,1.18h0Z"/>
      <path id="path19" class="cls-3" d="M221.28,168.62c-5.92,5.8-10.48,8.7-13.68,8.7-1.44,0-2.65-.61-3.64-1.82-.99-1.21-1.49-2.72-1.49-4.51,0-3.32,1.78-7.78,5.34-13.36-1.75.9-3.65,1.52-5.73,1.87-1.53,2.83-3.94,5.87-7.21,9.12h-.81v-3.18c1.84-1.91,3.5-3.96,4.98-6.15-2.03-.9-3.04-2.23-3.04-3.99s.62-3.76,1.86-5.82c1.24-2.06,2.94-3.09,5.11-3.09,1.84,0,2.76.94,2.76,2.83,0,1.49-.53,3.61-1.59,6.36,3.91-.43,7.33-3.42,10.25-8.98l3.22-.14-3.29,9.05c-1.37,3.82-2.25,6.42-2.65,7.8s-.6,2.6-.6,3.66c0,.99.23,1.78.69,2.37.46.59,1.08.89,1.86.89.85,0,1.66-.29,2.44-.86.78-.58,2.52-2.18,5.23-4.79v4.07h0Z"/>
      <path id="path21" class="cls-3" d="M256,168.62c-5.44,5.75-10.11,8.63-14,8.63-1.58,0-2.85-.55-3.82-1.66-.97-1.11-1.45-2.59-1.45-4.45,0-2.52,1.04-6.38,3.11-11.56,1.11-2.78,1.66-4.55,1.66-5.3s-.3-1.13-.88-1.13c-.33,0-.77.17-1.31.49-.5.33-1.07.79-1.73,1.38-.59.54-1.25,1.2-1.98,1.98-.64.67-1.32,1.42-2.05,2.26l-1.98,2.3c-.87,1.06-1.41,2.18-1.62,3.36-.36,2-.59,3.84-.71,5.52-.07,1.25-.11,2.93-.11,5.06l-7.81,1.84c-.26-3.18-.39-5.55-.39-7.11,0-3.79.44-7.39,1.33-10.78.88-3.4,2.3-7.21,4.26-11.46l8.63-1.66c-1.81,4.88-3,8.72-3.57,11.52,3.87-4.31,6.93-7.3,9.2-8.96,2.27-1.66,4.29-2.49,6.05-2.49,1.2,0,2.2.45,3,1.36.8.91,1.2,2.04,1.2,3.41,0,2.26-1.01,5.99-3.04,11.17-1.39,3.56-2.09,5.87-2.09,6.93,0,1.42.58,2.13,1.74,2.13,1.72,0,4.51-2.28,8.37-6.82v4.06Z"/>
    </g>
  </g>
  <text id="text25" class="cls-4" transform="translate(141.55 134.62)"><tspan x="0" y="0">scikit</tspan></text>
</svg>