<?xml version="1.0" encoding="UTF-8"?>
<svg id="Layer_1" data-name="Layer 1" xmlns="http://www.w3.org/2000/svg" viewBox="0 0 256 256">
  <defs>
    <style>
      .cls-1 {
        fill: #2cb134;
        stroke-width: 0px;
      }
    </style>
  </defs>
  <path class="cls-1" d="M229.3,0c.63-.04,1.22.28,1.53.82.31.54.29,1.22-.07,1.74h0l-63.27,85.94c-.46.52-1.13.82-1.83.82s-1.36-.3-1.83-.82h0l-22.31-24.87c-.54-.57-1.32-.85-2.1-.78s-1.49.49-1.92,1.15h0l-13.53,17.19c-.43.97-.29,2.09.37,2.93h0l40.23,41.69c.46.52,1.13.82,1.83.82s1.36-.3,1.83-.82h0l78.99-88.87c.47-.5,1.19-.67,1.83-.43.64.24,1.07.84,1.1,1.53h0v216.13c.03.49-.15.98-.5,1.33-.35.35-.83.53-1.33.5H7.68c-.49.03-.98-.15-1.33-.5-.35-.35-.53-.83-.5-1.33h0V1.83c-.03-.49.15-.98.5-1.33C6.71.16,7.19-.03,7.68,0h221.62ZM167.13,145.92c-10.89-.19-21.38,4.07-29.05,11.81-7.67,7.73-11.84,18.26-11.55,29.15,0,25.23,18.29,41.32,42.06,41.32,11,.27,21.79-3.07,30.72-9.51.83-.75.98-1.99.37-2.93h0l-6.58-9.87c-.74-.85-2-1.01-2.93-.37-5.72,3.91-12.46,6.07-19.38,6.22-12.8,0-20.85-8.05-22.31-17.55.03-.39.34-.7.73-.73h55.22c1.18-.08,2.11-1.02,2.19-2.19h0v-2.19c0-25.6-16.09-43.15-39.5-43.15ZM112.64,132.02c-11.11-9.08-25.16-13.76-39.5-13.17-24.87,0-40.23,14.63-40.23,32.18,0,39.86,60.71,27.06,60.71,45.71,0,5.85-5.85,11.7-18.29,11.7-11.81.1-23.2-4.36-31.82-12.43-.51-.48-1.21-.72-1.91-.65s-1.34.44-1.75,1.01h0l-9.51,13.17c-.62.93-.46,2.17.37,2.93,9.87,9.14,23.77,15.36,43.15,15.36,28.52,0,42.42-14.63,43.15-33.64,0-39.5-60.71-28.16-60.71-44.98,0-6.22,5.49-10.61,14.99-10.61,10.48-.14,20.69,3.35,28.89,9.87.48.39,1.1.58,1.72.51.62-.07,1.19-.38,1.57-.88h0l9.51-12.8c.39-.48.58-1.1.51-1.72s-.38-1.19-.88-1.57ZM167.5,162.01c9.95-.56,18.53,6.9,19.38,16.82-.03.39-.34.7-.73.73h-37.3c-.39-.03-.7-.34-.73-.73,1.22-9.73,9.58-16.98,19.38-16.82Z"/>
</svg>