<?xml version="1.0" encoding="UTF-8"?>
<svg id="_Слой_1" data-name="Слой 1" xmlns="http://www.w3.org/2000/svg" viewBox="0 0 256 256">
  <defs>
    <style>
      .cls-1 {
        fill: #000;
      }

      .cls-1, .cls-2 {
        stroke-width: 0px;
      }

      .cls-3 {
        font-family: MyriadPro-Regular, 'Myriad Pro';
        font-size: 79.47px;
        isolation: isolate;
      }

      .cls-3, .cls-2 {
        fill: #fff;
      }
    </style>
  </defs>
  <g>
    <path class="cls-1" d="M145.47,149.43H1.71v31.63c9.93,19.82,134.51,20.77,143.75,0v-31.63Z"/>
    <path class="cls-2" d="M75.11,197.98c-16.12,0-32.12-1.18-44.84-3.33-17.16-2.91-27.28-7.23-30.09-12.84l-.18-.36v-33.74h147.18v33.7l-.15.33c-6.13,13.76-50.91,15.84-64.49,16.15-2.47.06-4.95.08-7.43.08ZM3.42,180.62c5.13,8.69,39.56,14.76,79.04,13.86,32.89-.75,57.36-6.28,61.3-13.82v-29.52H3.42v29.48Z"/>
  </g>
  <g>
    <path class="cls-1" d="M145.62,119.36H1.86v31.62c9.93,19.82,134.51,20.77,143.75,0v-31.62Z"/>
    <path class="cls-2" d="M75.26,167.92c-16.12,0-32.12-1.18-44.84-3.33-17.16-2.91-27.28-7.23-30.09-12.84l-.18-.36v-33.74h147.18v33.69l-.15.33c-6.13,13.76-50.91,15.84-64.49,16.15-2.47.06-4.95.08-7.43.08ZM3.57,150.55c5.13,8.69,39.56,14.76,79.04,13.86,32.89-.75,57.36-6.28,61.3-13.82v-29.52H3.57v29.47Z"/>
  </g>
  <g>
    <path class="cls-1" d="M145.62,87.27H1.86v31.63c9.93,19.82,134.51,20.76,143.75,0v-31.63Z"/>
    <path class="cls-2" d="M75.25,135.83c-16.12,0-32.12-1.18-44.84-3.33-17.15-2.91-27.27-7.22-30.08-12.83l-.18-.36v-33.74h147.18v33.7l-.15.33c-6.13,13.76-50.92,15.84-64.51,16.15-2.47.06-4.95.08-7.42.08ZM3.57,118.46c5.13,8.69,39.55,14.75,79.02,13.86,32.89-.75,57.38-6.28,61.31-13.82v-29.52H3.57v29.48Z"/>
  </g>
  <g>
    <path class="cls-1" d="M145.62,56.12H1.86v31.62c9.93,19.82,134.51,20.77,143.75,0v-31.62Z"/>
    <path class="cls-2" d="M75.26,104.67c-16.12,0-32.12-1.18-44.84-3.33-17.16-2.91-27.28-7.23-30.09-12.84l-.18-.36v-33.73h147.18v33.69l-.15.33c-6.13,13.76-50.91,15.84-64.49,16.15-2.47.06-4.95.08-7.43.08ZM3.57,87.3c5.13,8.69,39.55,14.76,79.04,13.86,32.89-.75,57.36-6.28,61.3-13.82v-29.51H3.57v29.47Z"/>
  </g>
  <g>
    <ellipse class="cls-1" cx="73.91" cy="55.89" rx="71.71" ry="17.23"/>
    <path class="cls-2" d="M73.91,74.83C38.32,74.83.49,68.19.49,55.89s37.83-18.94,73.42-18.94,73.42,6.64,73.42,18.94-37.83,18.94-73.42,18.94ZM73.91,40.38c-19.02,0-36.89,1.78-50.3,5-14.52,3.49-19.69,7.72-19.69,10.52s5.17,7.03,19.69,10.52c13.42,3.22,31.28,5,50.3,5s36.89-1.78,50.3-5c14.52-3.49,19.69-7.72,19.69-10.52s-5.17-7.03-19.69-10.52c-13.42-3.22-31.28-5-50.3-5Z"/>
  </g>
  <g>
    <rect class="cls-1" x="66.21" y="133.99" width="187.91" height="80.78" rx="19.2" ry="19.2"/>
    <path class="cls-2" d="M234.91,216.65H85.41c-11.63,0-21.09-9.46-21.09-21.09v-42.37c0-11.63,9.46-21.09,21.09-21.09h149.5c11.63,0,21.09,9.46,21.09,21.09v42.37c0,11.63-9.46,21.09-21.09,21.09ZM85.41,135.87c-9.55,0-17.32,7.77-17.32,17.32v42.37c0,9.55,7.77,17.32,17.32,17.32h149.5c9.55,0,17.32-7.77,17.32-17.32v-42.37c0-9.55-7.77-17.32-17.32-17.32H85.41Z"/>
  </g>
  <text class="cls-3" transform="translate(100.94 199.18)"><tspan x="0" y="0">SQL</tspan></text>
</svg>