<?xml version="1.0" encoding="UTF-8"?>
<svg id="_Слой_1" data-name="Слой_1" xmlns="http://www.w3.org/2000/svg" viewBox="0 0 747.94 532">
  <defs>
    <style>
      .cls-1 {
        stroke-width: 11px;
      }

      .cls-1, .cls-2 {
        stroke: #fff;
        stroke-miterlimit: 10;
      }

      .cls-3 {
        fill: #fff;
      }

      .cls-4 {
        isolation: isolate;
      }

      .cls-2 {
        stroke-width: 10px;
      }
    </style>
  </defs>
  <path class="cls-2" d="M425,328.6H5v92.4c29,57.91,393,60.67,420,0v-92.4Z"/>
  <path class="cls-2" d="M425.44,240.77H5.44v92.38c29,57.91,393,60.67,420,0v-92.38Z"/>
  <path class="cls-2" d="M425.44,147H5.44v92.4c29,57.91,393,60.66,420,0v-92.4Z"/>
  <path class="cls-2" d="M425.44,56H5.44v92.37c29,57.91,393,60.67,420,0V56Z"/>
  <ellipse class="cls-2" cx="215.94" cy="55.33" rx="209.5" ry="50.33"/>
  <ellipse class="cls-3" cx="43.44" cy="126.33" rx="9.5" ry="13.1"/>
  <ellipse class="cls-3" cx="43.44" cy="217.33" rx="9.5" ry="13.1"/>
  <ellipse class="cls-3" cx="43.44" cy="306.96" rx="9.5" ry="13.1"/>
  <ellipse class="cls-3" cx="43.44" cy="402.09" rx="9.5" ry="13.1"/>
  <rect class="cls-1" x="193.44" y="283.5" width="549" height="236" rx="56.11" ry="56.11"/>
  <g class="cls-4">
    <path class="cls-3" d="M309.76,449.34c9.06,5.57,22.29,10.22,36.22,10.22,20.67,0,32.74-10.91,32.74-26.7,0-14.63-8.36-22.99-29.49-31.11-25.54-9.06-41.33-22.29-41.33-44.35,0-24.38,20.2-42.49,50.62-42.49,16.02,0,27.63,3.71,34.6,7.66l-5.57,16.49c-5.11-2.79-15.56-7.43-29.72-7.43-21.36,0-29.49,12.77-29.49,23.45,0,14.63,9.52,21.83,31.11,30.19,26.47,10.22,39.94,22.99,39.94,45.97,0,24.15-17.88,45.05-54.8,45.05-15.09,0-31.58-4.41-39.94-9.98l5.11-16.95Z"/>
    <path class="cls-3" d="M556.12,496.94c-21.13-5.57-41.79-11.84-59.91-18.11-3.25-1.16-6.5-2.32-9.52-2.32-37.15-1.39-68.96-28.79-68.96-79.18s30.65-82.43,72.91-82.43,70.12,32.97,70.12,79.18c0,40.17-18.58,65.94-44.58,75v.93c15.56,3.95,32.51,7.66,45.74,9.98l-5.8,16.95ZM539.4,395c0-31.35-16.25-63.62-49.46-63.62s-50.85,31.58-50.62,65.48c-.23,33.2,18.11,63.16,49.69,63.16s50.39-29.26,50.39-65.01Z"/>
    <path class="cls-3" d="M586.99,317.45h20.2v139.55h66.87v16.95h-87.07v-156.5Z"/>
  </g>
</svg>