<?xml version="1.0" encoding="UTF-8"?>
<svg id="Layer_1" data-name="Layer 1" xmlns="http://www.w3.org/2000/svg" viewBox="0 0 256 256">
  <defs>
    <style>
      .cls-1 {
        fill: #3c99d4;
      }

      .cls-1, .cls-2, .cls-3, .cls-4 {
        stroke-width: 0px;
      }

      .cls-2 {
        fill: #1070b3;
      }

      .cls-3 {
        fill: #2489ca;
      }

      .cls-4 {
        fill: #0877b9;
      }
    </style>
  </defs>
  <path class="cls-3" d="M2.44,89.69s-6.24-4.49,1.25-10.5l17.43-15.59s4.99-5.25,10.26-.68l160.87,121.79v58.4s-.08,9.17-11.85,8.16L2.44,89.69Z"/>
  <path class="cls-2" d="M43.9,127.33L2.44,165.03s-4.26,3.17,0,8.83l19.25,17.51s4.57,4.91,11.33-.68l43.96-33.33-33.07-30.03Z"/>
  <path class="cls-4" d="M116.7,127.64l76.04-58.07-.49-58.09s-3.25-12.68-14.08-6.08l-101.19,92.1,39.72,30.14Z"/>
  <path class="cls-1" d="M180.4,251.36c4.42,4.52,9.77,3.04,9.77,3.04l59.26-29.2c7.59-5.17,6.52-11.59,6.52-11.59V39.23c0-7.66-7.85-10.31-7.85-10.31l-51.36-24.76c-11.22-6.94-18.58,1.25-18.58,1.25,0,0,9.46-6.81,14.08,6.08v230.57c0,1.58-.34,3.14-1.01,4.55-1.35,2.73-4.29,5.27-11.33,4.21l.49.55Z"/>
</svg>